<svg style="display: none;" xmlns="http://www.w3.org/2000/svg">
    <svg id="nav-menu" viewBox='0 0 48 48'>
        <path d="M0 0h48v48h-48z" fill="none"/>
        <path d="M6 36h36v-4h-36v4zm0-10h36v-4h-36v4zm0-14v4h36v-4h-36z"/>
    </svg>
    <svg id="nav-back" viewBox='0 0 48 48'>
        <path d="M0 0h48v48h-48z" fill="none"/>
        <path d="M40 22h-24.34l11.17-11.17-2.83-2.83-16 16 16 16 2.83-2.83-11.17-11.17h24.34v-4z"/>
    </svg>
    <svg id="nav-forward" viewBox='0 0 48 48'>
        <path d="M0 0h48v48h-48z" fill="none"/>
        <path d="M24 8l-2.83 2.83 11.17 11.17h-24.34v4h24.34l-11.17 11.17 2.83 2.83 16-16z"/>
    </svg>
    <svg id="nav-overflow" viewBox='0 0 48 48'>
        <path d="M0 0h48v48h-48z" fill="none"/>
        <path d="M24 16c2.21 0 4-1.79 4-4s-1.79-4-4-4-4 1.79-4 4 1.79 4 4 4zm0 4c-2.21 0-4 1.79-4 4s1.79 4 4 4 4-1.79 4-4-1.79-4-4-4zm0 12c-2.21 0-4 1.79-4 4s1.79 4 4 4 4-1.79 4-4-1.79-4-4-4z"/>
    </svg>
    <svg id="close" viewBox="0 0 48 48">
        <path d="M38 12.83l-2.83-2.83-11.17 11.17-11.17-11.17-2.83 2.83 11.17 11.17-11.17 11.17 2.83 2.83 11.17-11.17 11.17 11.17 2.83-2.83-11.17-11.17z"/>
        <path d="M0 0h48v48h-48z" fill="none"/>
    </svg>
    <svg id="mic-none" viewBox="0 0 48 48">
        <path d="M24 28c3.31 0 5.98-2.69 5.98-6L30 10c0-3.32-2.68-6-6-6-3.31 0-6 2.68-6 6v12c0 3.31 2.69 6 6 6zM21.6 9.8c0-1.32 1.08-2.4 2.4-2.4 1.32 0 2.4 1.08 2.4 2.4l-.02 12.4c0 1.32-1.07 2.4-2.38 2.4-1.32 0-2.4-1.08-2.4-2.4V9.8zm13 12.2c0 6-5.07 10.2-10.6 10.2-5.52 0-10.6-4.2-10.6-10.2H10c0 6.83 5.44 12.47 12 13.44V42h4v-6.56c6.56-.97 12-6.61 12-13.44h-3.4z"/>
        <path d="M0 0h48v48H0z" fill="none"/>
    </svg>
    <svg viewBox="0 0 48 48" id="ic-apps">
        <path d="M8 16h8v-8h-8v8zm12 24h8v-8h-8v8zm-12 0h8v-8h-8v8zm0-12h8v-8h-8v8zm12 0h8v-8h-8v8zm12-20v8h8v-8h-8zm-12 8h8v-8h-8v8zm12 12h8v-8h-8v8zm0 12h8v-8h-8v8z"/>
        <path d="M0 0h48v48h-48z" fill="none"/>
    </svg>
    <svg viewBox="0 0 48 48" id="ic-arrow-back">
        <path d="M0 0h48v48h-48z" fill="none"/>
        <path d="M40 22h-24.34l11.17-11.17-2.83-2.83-16 16 16 16 2.83-2.83-11.17-11.17h24.34v-4z"/>
    </svg>
    <svg viewBox="0 0 48 48" id="ic-arrow-drop-down">
        <path d="M14 20l10 10 10-10z"/>
        <path d="M0 0h48v48h-48z" fill="none"/>
    </svg>
    <svg viewBox="0 0 48 48" id="ic-arrow-drop-down-circle">
        <path d="M0 0h48v48h-48z" fill="none"/>
        <path d="M24 4c-11.05 0-20 8.95-20 20s8.95 20 20 20 20-8.95 20-20-8.95-20-20-20zm0 24l-8-8h16l-8 8z"/>
    </svg>
    <svg viewBox="0 0 48 48" id="ic-arrow-drop-up">
        <path d="M14 28l10-10 10 10z"/>
        <path d="M0 0h48v48h-48z" fill="none"/>
    </svg>
    <svg viewBox="0 0 48 48" id="ic-arrow-forward">
        <path d="M0 0h48v48h-48z" fill="none"/>
        <path d="M24 8l-2.83 2.83 11.17 11.17h-24.34v4h24.34l-11.17 11.17 2.83 2.83 16-16z"/>
    </svg>
    <svg viewBox="0 0 48 48" id="ic-cancel">
        <path d="M24 4c-11.05 0-20 8.95-20 20s8.95 20 20 20 20-8.95 20-20-8.95-20-20-20zm10 27.17l-2.83 2.83-7.17-7.17-7.17 7.17-2.83-2.83 7.17-7.17-7.17-7.17 2.83-2.83 7.17 7.17 7.17-7.17 2.83 2.83-7.17 7.17 7.17 7.17z"/>
        <path d="M0 0h48v48h-48z" fill="none"/>
    </svg>
    <svg viewBox="0 0 48 48" id="ic-check">
        <path d="M0 0h48v48h-48z" fill="none"/>
        <path d="M18 32.34l-8.34-8.34-2.83 2.83 11.17 11.17 24-24-2.83-2.83z"/>
    </svg>
    <svg id="ic-unchecked" viewBox='0 0 48 48'>
        <path d="M38 10v28H10V10h28m0-4H10c-2.21 0-4 1.79-4 4v28c0 2.21 1.79 4 4 4h28c2.21 0 4-1.79 4-4V10c0-2.21-1.79-4-4-4z"/>
        <path d="M0 0h48v48H0z" fill="none"/>
    </svg>
    <svg viewBox="0 0 48 48" id="ic-chevron-left">
        <path d="M30.83 14.83l-2.83-2.83-12 12 12 12 2.83-2.83-9.17-9.17z"/>
        <path d="M0 0h48v48h-48z" fill="none"/>
    </svg>
    <svg viewBox="0 0 48 48" id="ic-chevron-right">
        <path d="M20 12l-2.83 2.83 9.17 9.17-9.17 9.17 2.83 2.83 12-12z"/>
        <path d="M0 0h48v48h-48z" fill="none"/>
    </svg>
    <svg viewBox="0 0 48 48" id="ic-close">
        <path d="M38 12.83l-2.83-2.83-11.17 11.17-11.17-11.17-2.83 2.83 11.17 11.17-11.17 11.17 2.83 2.83 11.17-11.17 11.17 11.17 2.83-2.83-11.17-11.17z"/>
        <path d="M0 0h48v48h-48z" fill="none"/>
    </svg>
    <svg viewBox="0 0 48 48" id="ic-expand-less">
        <path d="M24 16l-12 12 2.83 2.83 9.17-9.17 9.17 9.17 2.83-2.83z"/>
        <path d="M0 0h48v48h-48z" fill="none"/>
    </svg>
    <svg viewBox="0 0 48 48" id="ic-expand-more">
        <path d="M33.17 17.17l-9.17 9.17-9.17-9.17-2.83 2.83 12 12 12-12z"/>
        <path d="M0 0h48v48h-48z" fill="none"/>
    </svg>
    <svg viewBox="0 0 48 48" id="ic-fullscreen">
        <path d="M0 0h48v48h-48z" fill="none"/>
        <path d="M14 28h-4v10h10v-4h-6v-6zm-4-8h4v-6h6v-4h-10v10zm24 14h-6v4h10v-10h-4v6zm-6-24v4h6v6h4v-10h-10z"/>
    </svg>
    <svg viewBox="0 0 48 48" id="ic-fullscreen-exit">
        <path d="M0 0h48v48h-48z" fill="none"/>
        <path d="M10 32h6v6h4v-10h-10v4zm6-16h-6v4h10v-10h-4v6zm12 22h4v-6h6v-4h-10v10zm4-22v-6h-4v10h10v-4h-6z"/>
    </svg>
    <svg viewBox="0 0 48 48" id="ic-menu">
        <path d="M0 0h48v48h-48z" fill="none"/>
        <path d="M6 36h36v-4h-36v4zm0-10h36v-4h-36v4zm0-14v4h36v-4h-36z"/>
    </svg>
    <svg viewBox="0 0 48 48" id="ic-more-horiz">
        <path d="M0 0h48v48h-48z" fill="none"/>
        <path d="M12 20c-2.21 0-4 1.79-4 4s1.79 4 4 4 4-1.79 4-4-1.79-4-4-4zm24 0c-2.21 0-4 1.79-4 4s1.79 4 4 4 4-1.79 4-4-1.79-4-4-4zm-12 0c-2.21 0-4 1.79-4 4s1.79 4 4 4 4-1.79 4-4-1.79-4-4-4z"/>
    </svg>
    <svg viewBox="0 0 48 48" id="ic-more-vert">
        <path d="M0 0h48v48h-48z" fill="none"/>
        <path d="M24 16c2.21 0 4-1.79 4-4s-1.79-4-4-4-4 1.79-4 4 1.79 4 4 4zm0 4c-2.21 0-4 1.79-4 4s1.79 4 4 4 4-1.79 4-4-1.79-4-4-4zm0 12c-2.21 0-4 1.79-4 4s1.79 4 4 4 4-1.79 4-4-1.79-4-4-4z"/>
    </svg>
    <svg viewBox="0 0 48 48" id="ic-refresh">
        <path d="M35.3 12.7c-2.89-2.9-6.88-4.7-11.3-4.7-8.84 0-15.98 7.16-15.98 16s7.14 16 15.98 16c7.45 0 13.69-5.1 15.46-12h-4.16c-1.65 4.66-6.07 8-11.3 8-6.63 0-12-5.37-12-12s5.37-12 12-12c3.31 0 6.28 1.38 8.45 3.55l-6.45 6.45h14v-14l-4.7 4.7z"/>
        <path d="M0 0h48v48h-48z" fill="none"/>
    </svg>
    <svg viewBox="0 0 48 48" id="ic-unfold-less">
        <path d="M0 0h48v48h-48z" fill="none"/>
        <path d="M14.83 37.17l2.83 2.83 6.34-6.34 6.34 6.34 2.83-2.83-9.17-9.17-9.17 9.17zm18.34-26.34l-2.83-2.83-6.34 6.34-6.34-6.34-2.83 2.83 9.17 9.17 9.17-9.17z"/>
    </svg>
    <svg viewBox="0 0 48 48" id="ic-unfold-more">
        <path d="M0 0h48v48h-48z" fill="none"/>
        <path d="M24 11.66l6.34 6.34 2.83-2.83-9.17-9.17-9.17 9.17 2.83 2.83 6.34-6.34zm0 24.68l-6.34-6.34-2.83 2.83 9.17 9.17 9.17-9.17-2.83-2.83-6.34 6.34z"/>
    </svg>
    <svg id="ic-star-outline"
         viewBox="0 0 1024 1024" >
        <path fill="#272636" d="M512 679.904l102.272-212.032 17.92-37.248 40.896-6.08 232.448-34.56L736 221.024l-28.416-28.416 6.656-39.616 39.552-236.16-204.8 110.144L512 46.816l-37.056-19.968-204.8-110.208 39.616 236.224 6.656 39.616L287.872 221.024 118.464 390.048l232.448 34.56 40.896 6.08 17.984 37.248L512 679.904M512 734.048c-25.024 0-47.872-14.144-58.56-36.224L352.064 487.456 118.912 452.768C94.976 449.184 75.072 432.8 67.328 410.4c-7.68-22.4-1.856-47.104 15.04-63.936l170.816-170.688-39.616-236.608c-3.968-23.808 6.336-47.744 26.56-61.696 11.136-7.616 24.192-11.52 37.312-11.52 10.752 0 21.504 2.56 31.296 7.808L512-16.736l203.264-109.504c9.792-5.248 20.544-7.808 31.296-7.808 13.056 0 26.112 3.904 37.248 11.52 20.224 13.952 30.592 37.888 26.56 61.696l-39.68 236.608 170.944 170.688c16.96 16.832 22.656 41.536 14.976 63.936-7.744 22.4-27.648 38.72-51.584 42.368l-233.152 34.688L570.56 697.824C559.936 719.968 537.088 734.048 512 734.048L512 734.048z" transform="translate(0, 812) scale(1, -1)"/>
    </svg>
    <svg version="1.1" id="ic-star"
         viewBox="0 0 1024 1024" >
        <path fill="#272636" d="M478.519 707.841c17.586 37.498 46.403 37.498 63.987 0l84.794-180.594c17.584-37.543 64.209-73.16 103.586-79.156l189.544-28.951c39.377-6.042 48.282-34.857 19.777-64.032l-137.147-140.592c-28.504-29.172-46.313-86.806-39.556-128.062l32.352-198.45c6.712-41.256-16.557-59.064-51.816-39.598l-169.498 93.696c-35.214 19.465-92.849 19.465-128.063 0l-169.498-93.696c-35.259-19.465-58.526-1.658-51.815 39.598l32.352 198.45c6.757 41.255-11.054 98.889-39.556 128.062l-137.147 140.593c-28.503 29.175-19.598 57.991 19.778 64.032l189.544 28.951c39.377 5.996 86.001 41.613 103.587 79.156l84.793 180.593z" transform="translate(0, 812) scale(1, -1)"/>
    </svg>
    <svg viewBox="0 0 48 48" id="ic-dialpad">
        <path d="M0 0h48v48h-48z" fill="none"/>
        <path d="M24 38c-2.21 0-4 1.79-4 4s1.79 4 4 4 4-1.79 4-4-1.79-4-4-4zm-12-36c-2.21 0-4 1.79-4 4s1.79 4 4 4 4-1.79 4-4-1.79-4-4-4zm0 12c-2.21 0-4 1.79-4 4s1.79 4 4 4 4-1.79 4-4-1.79-4-4-4zm0 12c-2.21 0-4 1.79-4 4s1.79 4 4 4 4-1.79 4-4-1.79-4-4-4zm24-16c2.21 0 4-1.79 4-4s-1.79-4-4-4-4 1.79-4 4 1.79 4 4 4zm-12 16c-2.21 0-4 1.79-4 4s1.79 4 4 4 4-1.79 4-4-1.79-4-4-4zm12 0c-2.21 0-4 1.79-4 4s1.79 4 4 4 4-1.79 4-4-1.79-4-4-4zm0-12c-2.21 0-4 1.79-4 4s1.79 4 4 4 4-1.79 4-4-1.79-4-4-4zm-12 0c-2.21 0-4 1.79-4 4s1.79 4 4 4 4-1.79 4-4-1.79-4-4-4zm0-12c-2.21 0-4 1.79-4 4s1.79 4 4 4 4-1.79 4-4-1.79-4-4-4z"/>
    </svg>
</svg>