<svg xmlns="http://www.w3.org/2000/svg" style="display: none;">
     <svg id="nav-menu" viewBox='0 0 48 48'>
         <path d="M0 0h48v48h-48z" fill="none"/>
         <path d="M6 36h36v-4h-36v4zm0-10h36v-4h-36v4zm0-14v4h36v-4h-36z"/>
     </svg>
     <svg id="nav-back" viewBox='0 0 48 48'>
           <path d="M0 0h48v48h-48z" fill="none"/>
           <path d="M40 22h-24.34l11.17-11.17-2.83-2.83-16 16 16 16 2.83-2.83-11.17-11.17h24.34v-4z"/>
      </svg>
    <svg id="nav-forward" viewBox='0 0 48 48'>
        <path d="M0 0h48v48h-48z" fill="none"/>
        <path d="M24 8l-2.83 2.83 11.17 11.17h-24.34v4h24.34l-11.17 11.17 2.83 2.83 16-16z"/>
    </svg>
    <svg id="nav-overflow" viewBox='0 0 48 48'>
        <path d="M0 0h48v48h-48z" fill="none"/>
        <path d="M24 16c2.21 0 4-1.79 4-4s-1.79-4-4-4-4 1.79-4 4 1.79 4 4 4zm0 4c-2.21 0-4 1.79-4 4s1.79 4 4 4 4-1.79 4-4-1.79-4-4-4zm0 12c-2.21 0-4 1.79-4 4s1.79 4 4 4 4-1.79 4-4-1.79-4-4-4z"/>
    </svg>
    <svg id="unchecked" viewBox='0 0 48 48'>
        <path d="M38 10v28H10V10h28m0-4H10c-2.21 0-4 1.79-4 4v28c0 2.21 1.79 4 4 4h28c2.21 0 4-1.79 4-4V10c0-2.21-1.79-4-4-4z"/>
        <path d="M0 0h48v48H0z" fill="none"/>
    </svg>
    <svg id="checked" viewBox='0 0 48 48'>
        <path d="M0 0h48v48h-48z" fill="none"/>
        <path d="M18 32.34l-8.34-8.34-2.83 2.83 11.17 11.17 24-24-2.83-2.83z"/>
    </svg>
    <svg id="close" viewBox="0 0 48 48">
        <path d="M38 12.83l-2.83-2.83-11.17 11.17-11.17-11.17-2.83 2.83 11.17 11.17-11.17 11.17 2.83 2.83 11.17-11.17 11.17 11.17 2.83-2.83-11.17-11.17z"/>
        <path d="M0 0h48v48h-48z" fill="none"/>
    </svg>
    <svg id="mic-none" viewBox="0 0 48 48">
        <path d="M24 28c3.31 0 5.98-2.69 5.98-6L30 10c0-3.32-2.68-6-6-6-3.31 0-6 2.68-6 6v12c0 3.31 2.69 6 6 6zM21.6 9.8c0-1.32 1.08-2.4 2.4-2.4 1.32 0 2.4 1.08 2.4 2.4l-.02 12.4c0 1.32-1.07 2.4-2.38 2.4-1.32 0-2.4-1.08-2.4-2.4V9.8zm13 12.2c0 6-5.07 10.2-10.6 10.2-5.52 0-10.6-4.2-10.6-10.2H10c0 6.83 5.44 12.47 12 13.44V42h4v-6.56c6.56-.97 12-6.61 12-13.44h-3.4z"/>
        <path d="M0 0h48v48H0z" fill="none"/>
    </svg>

</svg>