<svg xmlns="http://www.w3.org/2000/svg" style="display: none;">
<svg xmlns="http://www.w3.org/2000/svg" viewBox="0 0 48 48" id="ic-error">    <path d="M0 0h48v48h-48z" fill="none"/>    <path d="M24 4c-11.04 0-20 8.95-20 20s8.96 20 20 20 20-8.95 20-20-8.96-20-20-20zm2 30h-4v-4h4v4zm0-8h-4v-12h4v12z"/></svg>
<svg xmlns="http://www.w3.org/2000/svg" viewBox="0 0 48 48" id="ic-warning">    <path d="M0 0h48v48h-48z" fill="none"/>    <path d="M2 42h44l-22-38-22 38zm24-6h-4v-4h4v4zm0-8h-4v-8h4v8z"/></svg>
</svg>
