<svg xmlns="http://www.w3.org/2000/svg" style="display: none;">
<svg xmlns="http://www.w3.org/2000/svg" viewBox="0 0 48 48" id="ic-beenhere">    <path d="M0 0h48v48h-48z" fill="none"/>    <path d="M38 2h-28c-2.21 0-3.98 1.79-3.98 4l-.02 25.87c0 1.38.7 2.6 1.76 3.32l16.23 10.81 16.23-10.81c1.06-.72 1.76-1.94 1.76-3.32l.02-25.87c0-2.21-1.79-4-4-4zm-18 30l-10-10 2.83-2.83 7.17 7.17 15.17-15.17 2.83 2.83-18 18z"/></svg>
<svg xmlns="http://www.w3.org/2000/svg" viewBox="0 0 48 48" id="ic-directions">    <path d="M43.41 22.59l-18-18c-.78-.78-2.05-.78-2.82 0l-18 18c-.78.78-.78 2.05 0 2.83l18 17.99v.01c.78.78 2.05.78 2.83 0l18-18c.78-.79.78-2.05-.01-2.83zm-15.41 6.41v-5h-8v6h-4v-8c0-1.11.89-2 2-2h10v-5l7 7-7 7z"/>    <path d="M0 0h48v48h-48z" fill="none"/></svg>
<svg xmlns="http://www.w3.org/2000/svg" viewBox="0 0 48 48" id="ic-directions-bike">    <path d="M0 0h48v48h-48z" fill="none"/>    <path d="M32 9.6c1.98 0 3.6-1.61 3.6-3.6s-1.62-3.6-3.6-3.6c-1.99 0-3.6 1.61-3.6 3.6s1.61 3.6 3.6 3.6zm6 14.4c-5.52 0-10 4.48-10 10s4.48 10 10 10 10-4.48 10-10-4.48-10-10-10zm0 17c-3.87 0-7-3.13-7-7s3.13-7 7-7 7 3.13 7 7-3.13 7-7 7zm-8.4-21h8.4v-3.6h-6.4l-3.87-6.53c-.59-1-1.68-1.67-2.93-1.67-.94 0-1.79.38-2.4 1l-7.4 7.39c-.62.62-1 1.47-1 2.41 0 1.26.67 2.32 1.7 2.94l6.7 4.06v10h3.6v-12.96l-4.5-3.34 4.64-4.66 3.46 4.96zm-19.6 4c-5.52 0-10 4.48-10 10s4.48 10 10 10 10-4.48 10-10-4.48-10-10-10zm0 17c-3.87 0-7-3.13-7-7s3.13-7 7-7 7 3.13 7 7-3.13 7-7 7z"/></svg>
<svg xmlns="http://www.w3.org/2000/svg" viewBox="0 0 48 48" id="ic-directions-bus">    <path d="M0 0h48v48h-48z" fill="none"/>    <path d="M8 32c0 1.77.78 3.34 2 4.44v3.56c0 1.1.9 2 2 2h2c1.11 0 2-.9 2-2v-2h16v2c0 1.1.89 2 2 2h2c1.1 0 2-.9 2-2v-3.56c1.22-1.1 2-2.67 2-4.44v-20c0-7-7.16-8-16-8s-16 1-16 8v20zm7 2c-1.66 0-3-1.34-3-3s1.34-3 3-3 3 1.34 3 3-1.34 3-3 3zm18 0c-1.66 0-3-1.34-3-3s1.34-3 3-3 3 1.34 3 3-1.34 3-3 3zm3-12h-24v-10h24v10z"/></svg>
<svg xmlns="http://www.w3.org/2000/svg" viewBox="0 0 48 48" id="ic-directions-car">    <path d="M37.84 12.02c-.41-1.18-1.53-2.02-2.84-2.02h-22c-1.31 0-2.43.84-2.84 2.02l-4.16 11.98v16c0 1.1.9 2 2 2h2c1.11 0 2-.9 2-2v-2h24v2c0 1.1.9 2 2 2h2c1.11 0 2-.9 2-2v-16l-4.16-11.98zm-24.84 19.98c-1.66 0-3-1.34-3-3s1.34-3 3-3 3 1.34 3 3-1.34 3-3 3zm22 0c-1.66 0-3-1.34-3-3s1.34-3 3-3 3 1.34 3 3-1.34 3-3 3zm-25-10l3-9h22l3 9h-28z"/>    <path d="M0 0h48v48h-48z" fill="none"/></svg>
<svg xmlns="http://www.w3.org/2000/svg" viewBox="0 0 48 48" id="ic-directions-ferry">    <path d="M0 0h48v48h-48z" fill="none"/>    <path d="M40 42c-2.78 0-5.56-.94-8-2.65-4.88 3.42-11.12 3.42-16 0-2.44 1.71-5.22 2.65-8 2.65h-4v4h4c2.75 0 5.48-.69 8-1.99 5.04 2.59 10.96 2.59 16 0 2.52 1.29 5.25 1.99 8 1.99h4v-4h-4zm-32.11-4h.11c3.2 0 6.05-1.76 8-4 1.95 2.24 4.8 4 8 4s6.05-1.76 8-4c1.96 2.24 4.79 4 8 4h.11l3.79-13.37c.17-.51.12-1.07-.12-1.55-.25-.48-.68-.84-1.2-.99l-2.58-.85v-9.24c0-2.21-1.79-4-4-4h-6v-6h-12v6h-6c-2.21 0-4 1.79-4 4v9.24l-2.57.84c-.52.16-.95.51-1.2.99s-.29 1.04-.12 1.55l3.78 13.38zm4.11-26h24v7.93l-12-3.93-12 3.93v-7.93z"/></svg>
<svg xmlns="http://www.w3.org/2000/svg" viewBox="0 0 48 48" id="ic-directions-subway">    <path d="M0 0h48v48h-48z" fill="none"/>    <path d="M24 4c-8.84 0-16 1-16 8v19c0 3.87 3.14 7 7 7l-3 3v1h24v-1l-3-3c3.87 0 7-3.13 7-7v-19c0-7-7.16-8-16-8zm-9 30c-1.66 0-3-1.34-3-3s1.34-3 3-3 3 1.34 3 3-1.34 3-3 3zm7-12h-10v-10h10v10zm11 12c-1.66 0-3-1.34-3-3s1.34-3 3-3 3 1.34 3 3-1.34 3-3 3zm3-12h-10v-10h10v10z"/></svg>
<svg xmlns="http://www.w3.org/2000/svg" viewBox="0 0 48 48" id="ic-directions-train">    <path d="M0 0h48v48h-48z" fill="none"/>    <path d="M8 31c0 3.87 3.14 7 7 7l-3 3v1h24v-1l-3-3c3.87 0 7-3.13 7-7v-21c0-7-7.16-8-16-8s-16 1-16 8v21zm16 3c-2.21 0-4-1.79-4-4s1.79-4 4-4 4 1.79 4 4-1.79 4-4 4zm12-14h-24v-10h24v10z"/></svg>
<svg xmlns="http://www.w3.org/2000/svg" viewBox="0 0 48 48" id="ic-directions-transit">    <path d="M0 0h48v48h-48z" fill="none"/>    <path d="M24 4c-8.84 0-16 1-16 8v19c0 3.87 3.14 7 7 7l-3 3v1h24v-1l-3-3c3.87 0 7-3.13 7-7v-19c0-7-7.16-8-16-8zm-9 30c-1.66 0-3-1.34-3-3s1.34-3 3-3 3 1.34 3 3-1.34 3-3 3zm7-12h-10v-10h10v10zm11 12c-1.66 0-3-1.34-3-3s1.34-3 3-3 3 1.34 3 3-1.34 3-3 3zm3-12h-10v-10h10v10z"/></svg>
<svg xmlns="http://www.w3.org/2000/svg" viewBox="0 0 48 48" id="ic-directions-walk">    <path d="M0 0h48v48h-48z" fill="none"/>    <path d="M28 7.6c1.98 0 3.6-1.61 3.6-3.6s-1.62-3.6-3.6-3.6c-1.99 0-3.6 1.61-3.6 3.6s1.61 3.6 3.6 3.6zm.24 12.4h9.76v-3.6h-7.25l-4-6.66c-.59-1-1.68-1.66-2.92-1.66-.34 0-.67.05-.98.14l-10.85 3.38v10.4h3.6v-7.33l4.21-1.31-7.81 30.64h3.6l5.74-16.22 4.66 6.22v10h3.6v-12.81l-4.98-9.08 1.47-5.74 2.15 3.63z"/></svg>
<svg xmlns="http://www.w3.org/2000/svg" viewBox="0 0 48 48" id="ic-flight">    <path d="M20.36 18"/>    <path d="M42 32v-4l-16-10v-11c0-1.66-1.34-3-3-3s-3 1.34-3 3v11l-16 10v4l16-5v11l-4 3v3l7-2 7 2v-3l-4-3v-11l16 5z"/>    <path d="M0 0h48v48h-48z" fill="none"/></svg>
<svg xmlns="http://www.w3.org/2000/svg" viewBox="0 0 48 48" id="ic-hotel">    <path d="M0 0h48v48h-48z" fill="none"/>    <path d="M14 26c3.31 0 6-2.69 6-6s-2.69-6-6-6-6 2.69-6 6 2.69 6 6 6zm24-12h-16v14h-16v-18h-4v30h4v-6h36v6h4v-18c0-4.42-3.58-8-8-8z"/></svg>
<svg xmlns="http://www.w3.org/2000/svg" viewBox="0 0 48 48" id="ic-layers">    <path d="M0 0h48v48h-48z" fill="none"/>    <path d="M23.99 37.08l-14.75-11.47-3.24 2.52 18 14 18-14-3.26-2.53-14.75 11.48zm.01-5.08l14.73-11.45 3.27-2.55-18-14-18 14 3.26 2.53 14.74 11.47z"/></svg>
<svg xmlns="http://www.w3.org/2000/svg" viewBox="0 0 48 48" id="ic-layers-clear">    <path d="M0 0h48v48h-48z" fill="none"/>    <path d="M39.62 29.98l2.38-1.85-2.85-2.85-2.38 1.85 2.85 2.85zm-.89-9.43l3.27-2.55-18-14-5.83 4.53 15.75 15.75 4.81-3.73zm-32.18-18.55l-2.55 2.55 8.44 8.44-6.44 5.01 3.26 2.53 14.74 11.47 4.19-3.26 2.85 2.85-7.06 5.49-14.74-11.47-3.24 2.52 18 14 9.89-7.7 7.57 7.57 2.54-2.55-37.45-37.45z"/></svg>
<svg xmlns="http://www.w3.org/2000/svg" viewBox="0 0 48 48" id="ic-local-airport">    <path d="M42 32v-4l-16-10v-11c0-1.66-1.34-3-3-3s-3 1.34-3 3v11l-16 10v4l16-5v11l-4 3v3l7-2 7 2v-3l-4-3v-11l16 5z"/>    <path d="M0 0h48v48h-48z" fill="none"/></svg>
<svg xmlns="http://www.w3.org/2000/svg" viewBox="0 0 48 48" id="ic-local-atm">    <path d="M0 0h48v48h-48z" fill="none"/>    <path d="M22 34h4v-2h2c1.1 0 2-.9 2-2v-6c0-1.1-.9-2-2-2h-6v-2h8v-4h-4v-2h-4v2h-2c-1.1 0-2 .9-2 2v6c0 1.1.9 2 2 2h6v2h-8v4h4v2zm18-26h-32c-2.21 0-3.98 1.79-3.98 4l-.02 24c0 2.21 1.79 4 4 4h32c2.21 0 4-1.79 4-4v-24c0-2.21-1.79-4-4-4zm0 28h-32v-24h32v24z"/></svg>
<svg xmlns="http://www.w3.org/2000/svg" viewBox="0 0 48 48" id="ic-local-attraction">    <path d="M0 0h48v48h-48z" fill="none"/>    <path d="M40 24c0-2.21 1.79-4 4-4v-8c0-2.21-1.79-4-4-4h-32c-2.21 0-3.98 1.79-3.98 4l-.01 8c2.21.01 3.99 1.8 3.99 4 0 2.21-1.79 4-3.99 4l-.01 8c0 2.21 1.79 4 4 4h32c2.21 0 4-1.79 4-4v-8c-2.21 0-4-1.79-4-4zm-8.84 9.6l-7.16-4.6-7.16 4.6 2.16-8.23-6.58-5.38 8.49-.5 3.09-7.89 3.09 7.89 8.49.5-6.58 5.38 2.16 8.23z"/></svg>
<svg xmlns="http://www.w3.org/2000/svg" viewBox="0 0 48 48" id="ic-local-bar">    <path d="M0 0h48v48h-48z" fill="none"/>    <path d="M22 26v12h-10v4h24v-4h-10v-12l16-16v-4h-36v4l16 16zm-7-12l-4-4h26l-4 4h-18z"/></svg>
<svg xmlns="http://www.w3.org/2000/svg" viewBox="0 0 48 48" id="ic-local-cafe">    <path d="M0 0h48v48h-48z" fill="none"/>    <path d="M40 6h-32v20c0 4.42 3.58 8 8 8h12c4.42 0 8-3.58 8-8v-6h4c2.21 0 4-1.79 4-4v-6c0-2.21-1.79-4-4-4zm0 10h-4v-6h4v6zm-36 26h36v-4h-36v4z"/></svg>
<svg xmlns="http://www.w3.org/2000/svg" viewBox="0 0 48 48" id="ic-local-car-wash">    <path d="M0 0h48v48h-48z" fill="none"/>    <path d="M34 10c1.66 0 3-1.34 3-3 0-2-3-5.4-3-5.4s-3 3.4-3 5.4c0 1.66 1.34 3 3 3zm-10 0c1.66 0 3-1.34 3-3 0-2-3-5.4-3-5.4s-3 3.4-3 5.4c0 1.66 1.34 3 3 3zm-10 0c1.66 0 3-1.34 3-3 0-2-3-5.4-3-5.4s-3 3.4-3 5.4c0 1.66 1.34 3 3 3zm23.84 6.02c-.41-1.18-1.53-2.02-2.84-2.02h-22c-1.31 0-2.43.84-2.84 2.02l-4.16 11.98v16c0 1.1.9 2 2 2h2c1.11 0 2-.9 2-2v-2h24v2c0 1.1.9 2 2 2h2c1.11 0 2-.9 2-2v-16l-4.16-11.98zm-24.84 19.98c-1.66 0-3-1.34-3-3s1.34-3 3-3 3 1.34 3 3-1.34 3-3 3zm22 0c-1.66 0-3-1.34-3-3s1.34-3 3-3 3 1.34 3 3-1.34 3-3 3zm-25-10l3-9h22l3 9h-28z"/></svg>
<svg xmlns="http://www.w3.org/2000/svg" viewBox="0 0 48 48" id="ic-local-convenience-store">    <path d="M0 0h48v48h-48z" fill="none"/>    <path d="M38 14v-6h-28v6h-6v26h16v-8h8v8h16v-26h-6zm-16 6h-4v2h4v2h-6v-6h4v-2h-4v-2h6v6zm10 4h-2v-4h-4v-6h2v4h2v-4h2v10z"/></svg>
<svg xmlns="http://www.w3.org/2000/svg" viewBox="0 0 48 48" id="ic-local-drink">    <path d="M0 0h48v48h-48z" fill="none"/>    <path d="M6 4l4.03 36.47c.23 1.99 1.92 3.53 3.97 3.53h20c2.05 0 3.74-1.54 3.97-3.53l4.03-36.47h-36zm18 34c-3.31 0-6-2.69-6-6 0-4 6-10.8 6-10.8s6 6.8 6 10.8c0 3.31-2.69 6-6 6zm12.65-22h-25.3l-.88-8h27.07l-.89 8z"/></svg>
<svg xmlns="http://www.w3.org/2000/svg" viewBox="0 0 48 48" id="ic-local-florist">    <path d="M0 0h48v48h-48z" fill="none"/>    <path d="M24 44c9.94 0 18-8.06 18-18-9.94 0-18 8.06-18 18zm-12.79-23.5c0 2.76 2.24 5 5 5 1.05 0 2.03-.33 2.83-.88l-.04.38c0 2.76 2.24 5 5 5s5-2.24 5-5l-.04-.38c.81.56 1.78.88 2.83.88 2.76 0 5-2.24 5-5 0-1.99-1.17-3.7-2.86-4.5 1.68-.8 2.86-2.51 2.86-4.5 0-2.76-2.24-5-5-5-1.05 0-2.03.33-2.83.88l.04-.38c0-2.76-2.24-5-5-5s-5 2.24-5 5l.04.38c-.81-.56-1.78-.88-2.83-.88-2.76 0-5 2.24-5 5 0 1.99 1.17 3.7 2.86 4.5-1.69.8-2.86 2.51-2.86 4.5zm12.79-9.5c2.76 0 5 2.24 5 5s-2.24 5-5 5-5-2.24-5-5 2.24-5 5-5zm-18 15c0 9.94 8.06 18 18 18 0-9.94-8.06-18-18-18z"/></svg>
<svg xmlns="http://www.w3.org/2000/svg" viewBox="0 0 48 48" id="ic-local-gas-station">    <path d="M0 0h48v48h-48z" fill="none"/>    <path d="M39.54 14.46l.03-.03-7.45-7.43-2.12 2.12 4.22 4.22c-1.88.72-3.22 2.53-3.22 4.66 0 2.76 2.24 5 5 5 .71 0 1.39-.15 2-.42v14.42c0 1.1-.9 2-2 2s-2-.9-2-2v-9c0-2.21-1.79-4-4-4h-2v-14c0-2.21-1.79-4-4-4h-12c-2.21 0-4 1.79-4 4v32h20v-15h3v10c0 2.76 2.24 5 5 5s5-2.24 5-5v-19c0-1.38-.56-2.63-1.46-3.54zm-15.54 5.54h-12v-10h12v10zm12 0c-1.1 0-2-.9-2-2s.9-2 2-2 2 .9 2 2-.9 2-2 2z"/></svg>
<svg xmlns="http://www.w3.org/2000/svg" viewBox="0 0 48 48" id="ic-local-grocery-store">    <path d="M14 36c-2.21 0-3.98 1.79-3.98 4s1.77 4 3.98 4 4-1.79 4-4-1.79-4-4-4zm-12-32v4h4l7.19 15.17-2.7 4.9c-.31.58-.49 1.23-.49 1.93 0 2.21 1.79 4 4 4h24v-4h-23.15c-.28 0-.5-.22-.5-.5 0-.09.02-.17.06-.24l1.79-3.26h14.9c1.5 0 2.81-.83 3.5-2.06l7.15-12.98c.16-.28.25-.61.25-.96 0-1.11-.9-2-2-2h-29.57l-1.9-4h-6.53zm32 32c-2.21 0-3.98 1.79-3.98 4s1.77 4 3.98 4 4-1.79 4-4-1.79-4-4-4z"/>    <path d="M0 0h48v48h-48z" fill="none"/></svg>
<svg xmlns="http://www.w3.org/2000/svg" viewBox="0 0 48 48" id="ic-local-hospital">    <path d="M0 0h48v48h-48z" fill="none"/>    <path d="M38 6h-28c-2.21 0-3.98 1.79-3.98 4l-.02 28c0 2.21 1.79 4 4 4h28c2.21 0 4-1.79 4-4v-28c0-2.21-1.79-4-4-4zm-2 22h-8v8h-8v-8h-8v-8h8v-8h8v8h8v8z"/></svg>
<svg xmlns="http://www.w3.org/2000/svg" viewBox="0 0 48 48" id="ic-local-hotel">    <path d="M0 0h48v48h-48z" fill="none"/>    <path d="M14 26c3.31 0 6-2.69 6-6s-2.69-6-6-6-6 2.69-6 6 2.69 6 6 6zm24-12h-16v14h-16v-18h-4v30h4v-6h36v6h4v-18c0-4.42-3.58-8-8-8z"/></svg>
<svg xmlns="http://www.w3.org/2000/svg" viewBox="0 0 48 48" id="ic-local-laundry-service">    <path d="M18.34 33.66c3.12 3.12 8.19 3.12 11.31 0 3.12-3.12 3.12-8.19 0-11.31l-11.31 11.31zm17.66-29.64l-24-.02c-2.21 0-4 1.79-4 4v32c0 2.21 1.79 4 4 4h24c2.21 0 4-1.79 4-4v-32c0-2.21-1.79-3.98-4-3.98zm-16 3.98c1.1 0 2 .9 2 2s-.9 2-2 2-2-.9-2-2 .9-2 2-2zm-6 0c1.1 0 2 .9 2 2s-.9 2-2 2-2-.9-2-2 .9-2 2-2zm10 32c-6.63 0-12-5.37-12-12s5.37-12 12-12 12 5.37 12 12-5.37 12-12 12z"/>    <path d="M0 0h48v48h-48z" fill="none"/></svg>
<svg xmlns="http://www.w3.org/2000/svg" viewBox="0 0 48 48" id="ic-local-library">    <path d="M0 0h48v48h-48z" fill="none"/>    <path d="M24 23.09c-4.73-4.39-11.04-7.09-18-7.09v22c6.96 0 13.27 2.7 18 7.09 4.73-4.39 11.04-7.09 18-7.09v-22c-6.96 0-13.27 2.7-18 7.09zm0-7.09c3.31 0 6-2.69 6-6s-2.69-6-6-6-6 2.69-6 6 2.69 6 6 6z"/></svg>
<svg xmlns="http://www.w3.org/2000/svg" viewBox="0 0 48 48" id="ic-local-mall">    <path d="M0 0h48v48h-48z" fill="none"/>    <path d="M38 12h-4c0-5.52-4.48-10-10-10s-10 4.48-10 10h-4c-2.21 0-3.98 1.79-3.98 4l-.02 24c0 2.21 1.79 4 4 4h28c2.21 0 4-1.79 4-4v-24c0-2.21-1.79-4-4-4zm-14-6c3.31 0 6 2.69 6 6h-12c0-3.31 2.69-6 6-6zm0 20c-5.52 0-10-4.48-10-10h4c0 3.31 2.69 6 6 6s6-2.69 6-6h4c0 5.52-4.48 10-10 10z"/></svg>
<svg xmlns="http://www.w3.org/2000/svg" viewBox="0 0 48 48" id="ic-local-movies">    <path d="M36 6v4h-4v-4h-16v4h-4v-4h-4v36h4v-4h4v4h16v-4h4v4h4v-36h-4zm-20 28h-4v-4h4v4zm0-8h-4v-4h4v4zm0-8h-4v-4h4v4zm20 16h-4v-4h4v4zm0-8h-4v-4h4v4zm0-8h-4v-4h4v4z"/>    <path d="M0 0h48v48h-48z" fill="none"/></svg>
<svg xmlns="http://www.w3.org/2000/svg" viewBox="0 0 48 48" id="ic-local-offer">    <path d="M0 0h48v48h-48z" fill="none"/>    <path d="M42.82 23.16l-17.99-17.99c-.73-.72-1.73-1.17-2.83-1.17h-14c-2.21 0-4 1.79-4 4v14c0 1.11.45 2.11 1.18 2.83l18 18c.72.72 1.72 1.17 2.82 1.17 1.1 0 2.11-.45 2.83-1.17l14-14c.72-.73 1.17-1.73 1.17-2.83 0-1.11-.45-2.11-1.18-2.84zm-31.82-9.16c-1.66 0-3-1.34-3-3s1.34-3 3-3 3 1.34 3 3-1.34 3-3 3z"/></svg>
<svg xmlns="http://www.w3.org/2000/svg" viewBox="0 0 48 48" id="ic-local-parking">    <path d="M0 0h48v48h-48z" fill="none"/>    <path d="M26 6h-14v36h8v-12h6c6.63 0 12-5.37 12-12s-5.37-12-12-12zm.4 16h-6.4v-8h6.4c2.21 0 4 1.79 4 4s-1.79 4-4 4z"/></svg>
<svg xmlns="http://www.w3.org/2000/svg" viewBox="0 0 48 48" id="ic-local-pharmacy">    <path d="M0 0h48v48h-48z" fill="none"/>    <path d="M42 10h-5.29l2.29-6.29-4.7-1.71-2.91 8h-25.39v4l4 12-4 12v4h36v-4l-4-12 4-12v-4zm-10 18h-6v6h-4v-6h-6v-4h6v-6h4v6h6v4z"/></svg>
<svg xmlns="http://www.w3.org/2000/svg" viewBox="0 0 48 48" id="ic-local-phone">    <path d="M0 0h48v48h-48z" fill="none"/>    <path d="M13.25 21.59c2.88 5.66 7.51 10.29 13.18 13.17l4.4-4.41c.55-.55 1.34-.71 2.03-.49 2.24.74 4.65 1.14 7.14 1.14 1.11 0 2 .89 2 2v7c0 1.11-.89 2-2 2-18.78 0-34-15.22-34-34 0-1.11.9-2 2-2h7c1.11 0 2 .89 2 2 0 2.49.4 4.9 1.14 7.14.22.69.06 1.48-.49 2.03l-4.4 4.42z"/></svg>
<svg xmlns="http://www.w3.org/2000/svg" viewBox="0 0 48 48" id="ic-local-pizza">    <path d="M0 0h48v48h-48z" fill="none"/>    <path d="M24 4c-7.13 0-13.55 3.09-17.98 8l17.98 32 17.99-31.99c-4.43-4.92-10.85-8.01-17.99-8.01zm-10 10c0-2.21 1.79-4 4-4s4 1.79 4 4-1.79 4-4 4-4-1.79-4-4zm10 16c-2.21 0-4-1.79-4-4s1.79-4 4-4 4 1.79 4 4-1.79 4-4 4z"/></svg>
<svg xmlns="http://www.w3.org/2000/svg" viewBox="0 0 48 48" id="ic-local-play">    <path d="M0 0h48v48h-48z" fill="none"/>    <path d="M40 24c0-2.21 1.79-4 4-4v-8c0-2.21-1.79-4-4-4h-32c-2.21 0-3.98 1.79-3.98 4l-.01 8c2.21.01 3.99 1.8 3.99 4 0 2.21-1.79 4-3.99 4l-.01 8c0 2.21 1.79 4 4 4h32c2.21 0 4-1.79 4-4v-8c-2.21 0-4-1.79-4-4zm-8.84 9.6l-7.16-4.6-7.16 4.6 2.16-8.23-6.58-5.38 8.49-.5 3.09-7.89 3.09 7.89 8.49.5-6.58 5.38 2.16 8.23z"/></svg>
<svg xmlns="http://www.w3.org/2000/svg" viewBox="0 0 48 48" id="ic-local-post-office">    <path d="M40 8h-32c-2.21 0-3.98 1.79-3.98 4l-.02 24c0 2.21 1.79 4 4 4h32c2.21 0 4-1.79 4-4v-24c0-2.21-1.79-4-4-4zm0 8l-16 10-16-10v-4l16 10 16-10v4z"/>    <path d="M0 0h48v48h-48z" fill="none"/></svg>
<svg xmlns="http://www.w3.org/2000/svg" viewBox="0 0 48 48" id="ic-local-print-shop">    <path d="M38 16h-28c-3.31 0-6 2.69-6 6v12h8v8h24v-8h8v-12c0-3.31-2.69-6-6-6zm-6 22h-16v-10h16v10zm6-14c-1.11 0-2-.89-2-2s.89-2 2-2c1.11 0 2 .89 2 2s-.89 2-2 2zm-2-18h-24v8h24v-8z"/>    <path d="M0 0h48v48h-48z" fill="none"/></svg>
<svg xmlns="http://www.w3.org/2000/svg" viewBox="0 0 48 48" id="ic-local-restaurant">    <path d="M0 0h48v48h-48z" fill="none"/>    <path d="M16.2 26.69l5.66-5.66-14.03-14.03c-3.12 3.12-3.12 8.19 0 11.31l8.37 8.38zm13.57-3.63c3.05 1.43 7.36.42 10.54-2.76 3.83-3.83 4.56-9.3 1.63-12.23-2.94-2.93-8.42-2.2-12.24 1.63-3.18 3.18-4.18 7.49-2.76 10.54-4.45 4.44-19.53 19.52-19.53 19.52l2.83 2.83 13.76-13.76 13.76 13.76 2.83-2.83-13.76-13.76 2.94-2.94z"/></svg>
<svg xmlns="http://www.w3.org/2000/svg" viewBox="0 0 48 48" id="ic-local-see">    <circle cx="24" cy="24" r="6.4"/>    <path d="M18 4l-3.66 4h-6.34c-2.21 0-4 1.79-4 4v24c0 2.21 1.79 4 4 4h32c2.21 0 4-1.79 4-4v-24c0-2.21-1.79-4-4-4h-6.34l-3.66-4h-12zm6 30c-5.52 0-10-4.48-10-10s4.48-10 10-10 10 4.48 10 10-4.48 10-10 10z"/>    <path d="M0 0h48v48h-48z" fill="none"/></svg>
<svg xmlns="http://www.w3.org/2000/svg" viewBox="0 0 48 48" id="ic-local-shipping">    <path d="M0 0h48v48h-48z" fill="none"/>    <path d="M40 16h-6v-8h-28c-2.21 0-4 1.79-4 4v22h4c0 3.31 2.69 6 6 6s6-2.69 6-6h12c0 3.31 2.69 6 6 6s6-2.69 6-6h4v-10l-6-8zm-28 21c-1.66 0-3-1.34-3-3s1.34-3 3-3 3 1.34 3 3-1.34 3-3 3zm27-18l3.93 5h-8.93v-5h5zm-3 18c-1.66 0-3-1.34-3-3s1.34-3 3-3 3 1.34 3 3-1.34 3-3 3z"/></svg>
<svg xmlns="http://www.w3.org/2000/svg" viewBox="0 0 48 48" id="ic-local-taxi">    <path d="M0 0h48v48h-48z" fill="none"/>    <path d="M37.84 12.02c-.41-1.18-1.53-2.02-2.84-2.02h-5v-4h-12v4h-5c-1.31 0-2.43.84-2.84 2.02l-4.16 11.98v16c0 1.1.9 2 2 2h2c1.11 0 2-.9 2-2v-2h24v2c0 1.1.9 2 2 2h2c1.11 0 2-.9 2-2v-16l-4.16-11.98zm-24.84 19.98c-1.66 0-3-1.34-3-3s1.34-3 3-3 3 1.34 3 3-1.34 3-3 3zm22 0c-1.66 0-3-1.34-3-3s1.34-3 3-3 3 1.34 3 3-1.34 3-3 3zm-25-10l3-9h22l3 9h-28z"/></svg>
<svg xmlns="http://www.w3.org/2000/svg" viewBox="0 0 48 48" id="ic-location-history">    <path d="M38 4h-28c-2.21 0-4 1.79-4 4v28c0 2.21 1.79 4 4 4h8l6 6 6-6h8c2.21 0 4-1.79 4-4v-28c0-2.21-1.79-4-4-4zm-14 6.6c2.98 0 5.4 2.42 5.4 5.4 0 2.98-2.42 5.4-5.4 5.4-2.98 0-5.4-2.42-5.4-5.4 0-2.98 2.42-5.4 5.4-5.4zm12 21.4h-24v-1.8c0-4 8-6.2 12-6.2s12 2.2 12 6.2v1.8z"/>    <path d="M0 0h48v48h-48z" fill="none"/></svg>
<svg xmlns="http://www.w3.org/2000/svg" viewBox="0 0 48 48" id="ic-map">    <path d="M41 6c-.11 0-.21.01-.31.05l-10.69 4.15-12-4.2-11.27 3.8c-.42.14-.73.5-.73.96v30.24c0 .55.45 1 1 1 .11 0 .21-.01.31-.05l10.69-4.15 12 4.2 11.28-3.79c.42-.15.72-.51.72-.97v-30.24c0-.55-.45-1-1-1zm-11 32l-12-4.21v-23.79l12 4.21v23.79z"/>    <path d="M0 0h48v48h-48z" fill="none"/></svg>
<svg xmlns="http://www.w3.org/2000/svg" viewBox="0 0 48 48" id="ic-my-location">    <path d="M0 0h48v48h-48z" fill="none"/>    <path d="M24 16c-4.42 0-8 3.58-8 8s3.58 8 8 8 8-3.58 8-8-3.58-8-8-8zm17.88 6c-.92-8.34-7.54-14.96-15.88-15.88v-4.12h-4v4.12c-8.34.92-14.96 7.54-15.88 15.88h-4.12v4h4.12c.92 8.34 7.54 14.96 15.88 15.88v4.12h4v-4.12c8.34-.92 14.96-7.54 15.88-15.88h4.12v-4h-4.12zm-17.88 16c-7.73 0-14-6.27-14-14s6.27-14 14-14 14 6.27 14 14-6.27 14-14 14z"/></svg>
<svg xmlns="http://www.w3.org/2000/svg" viewBox="0 0 48 48" id="ic-navigation">    <path d="M0 0h48v48h-48z" fill="none"/>    <path d="M24 4l-15 36.59 1.41 1.41 13.59-6 13.59 6 1.41-1.41z"/></svg>
<svg xmlns="http://www.w3.org/2000/svg" viewBox="0 0 48 48" id="ic-pin-drop">    <path d="M36 16c0-6.63-5.37-12-12-12s-12 5.37-12 12c0 9 12 22 12 22s12-13 12-22zm-16 0c0-2.21 1.79-4 4-4s4 1.79 4 4-1.79 4-4 4-4-1.79-4-4zm-10 24v4h28v-4h-28z"/>    <path d="M0 0h48v48h-48z" fill="none"/></svg>
<svg xmlns="http://www.w3.org/2000/svg" viewBox="0 0 48 48" id="ic-place">    <path d="M24 4c-7.73 0-14 6.27-14 14 0 10.5 14 26 14 26s14-15.5 14-26c0-7.73-6.27-14-14-14zm0 19c-2.76 0-5-2.24-5-5s2.24-5 5-5 5 2.24 5 5-2.24 5-5 5z"/>    <path d="M0 0h48v48h-48z" fill="none"/></svg>
<svg xmlns="http://www.w3.org/2000/svg" viewBox="0 0 48 48" id="ic-rate-review">    <path d="M0 0h48v48h-48zm30.71 12.83l-3.54-3.54c-.39-.39-1.02-.39-1.41 0l-13.76 13.76v4.95h4.95l13.76-13.76c.39-.39.39-1.02 0-1.41z" fill="none"/>    <path d="M40 4h-32c-2.21 0-3.98 1.79-3.98 4l-.02 36 8-8h28c2.21 0 4-1.79 4-4v-24c0-2.21-1.79-4-4-4zm-28 24v-4.95l13.76-13.76c.39-.39 1.02-.39 1.41 0l3.54 3.54c.39.39.39 1.02 0 1.41l-13.76 13.76h-4.95zm24 0h-15l4-4h11v4z"/></svg>
<svg xmlns="http://www.w3.org/2000/svg" viewBox="0 0 48 48" id="ic-restaurant-menu">    <path d="M0 0h48v48h-48z" fill="none"/>    <path d="M16.2 26.69l5.66-5.66-14.03-14.03c-3.12 3.12-3.12 8.19 0 11.31l8.37 8.38zm13.57-3.63c3.05 1.43 7.36.42 10.54-2.76 3.83-3.83 4.56-9.3 1.63-12.23-2.94-2.93-8.42-2.2-12.24 1.63-3.18 3.18-4.18 7.49-2.76 10.54-4.45 4.44-19.53 19.52-19.53 19.52l2.83 2.83 13.76-13.76 13.76 13.76 2.83-2.83-13.76-13.76 2.94-2.94z"/></svg>
<svg xmlns="http://www.w3.org/2000/svg" viewBox="0 0 48 48" id="ic-satellite">    <path d="M0 0h48v48h-48z" fill="none"/>    <path d="M38 6h-28c-2.21 0-4 1.79-4 4v28c0 2.21 1.79 4 4 4h28c2.21 0 4-1.79 4-4v-28c0-2.21-1.79-4-4-4zm-28 3.98h6c0 3.31-2.69 6.02-6 6.02v-6.02zm0 14.02v-4c5.52 0 10-4.5 10-10.02h4c0 7.73-6.27 14.02-14 14.02zm0 12l7-9 5 6.01 7-9.01 9 12h-28z"/></svg>
<svg xmlns="http://www.w3.org/2000/svg" viewBox="0 0 48 48" id="ic-store-mall-directory">    <path d="M0 0h48v48h-48z" fill="none"/>    <path d="M40 8h-32v4h32v-4zm2 20v-4l-2-10h-32l-2 10v4h2v12h20v-12h8v12h4v-12h2zm-18 8h-12v-8h12v8z"/></svg>
<svg xmlns="http://www.w3.org/2000/svg" viewBox="0 0 48 48" id="ic-terrain">    <path d="M0 0h48v48h-48z" fill="none"/>    <path d="M28 12l-7.5 10 5.7 7.6-3.2 2.4c-3.38-4.5-9-12-9-12l-12 16h44l-18-24z"/></svg>
<svg xmlns="http://www.w3.org/2000/svg" viewBox="0 0 48 48" id="ic-traffic">    <path d="M40 20h-6v-2.28c3.45-.89 6-3.99 6-7.72h-6v-2c0-1.1-.89-2-2-2h-16c-1.1 0-2 .9-2 2v2h-6c0 3.72 2.56 6.83 6 7.72v2.28h-6c0 3.72 2.56 6.83 6 7.72v2.28h-6c0 3.72 2.56 6.83 6 7.72v2.28c0 1.1.9 2 2 2h16c1.11 0 2-.9 2-2v-2.28c3.45-.89 6-3.99 6-7.72h-6v-2.28c3.45-.89 6-4 6-7.72zm-16 18c-2.21 0-4-1.79-4-4s1.79-4 4-4 4 1.79 4 4-1.79 4-4 4zm0-10c-2.21 0-4-1.79-4-4s1.79-4 4-4 4 1.79 4 4-1.79 4-4 4zm0-10c-2.21 0-4-1.79-4-4s1.79-4 4-4 4 1.79 4 4-1.79 4-4 4z"/>    <path d="M0 0h48v48h-48z" fill="none"/></svg>
</svg>
