<svg xmlns="http://www.w3.org/2000/svg" style="display: none;">
<svg xmlns="http://www.w3.org/2000/svg" viewBox="0 0 48 48" id="ic-apps">    <path d="M8 16h8v-8h-8v8zm12 24h8v-8h-8v8zm-12 0h8v-8h-8v8zm0-12h8v-8h-8v8zm12 0h8v-8h-8v8zm12-20v8h8v-8h-8zm-12 8h8v-8h-8v8zm12 12h8v-8h-8v8zm0 12h8v-8h-8v8z"/>    <path d="M0 0h48v48h-48z" fill="none"/></svg>
<svg xmlns="http://www.w3.org/2000/svg" viewBox="0 0 48 48" id="ic-arrow-back">    <path d="M0 0h48v48h-48z" fill="none"/>    <path d="M40 22h-24.34l11.17-11.17-2.83-2.83-16 16 16 16 2.83-2.83-11.17-11.17h24.34v-4z"/></svg>
<svg xmlns="http://www.w3.org/2000/svg" viewBox="0 0 48 48" id="ic-arrow-drop-down">    <path d="M14 20l10 10 10-10z"/>    <path d="M0 0h48v48h-48z" fill="none"/></svg>
<svg xmlns="http://www.w3.org/2000/svg" viewBox="0 0 48 48" id="ic-arrow-drop-down-circle">    <path d="M0 0h48v48h-48z" fill="none"/>    <path d="M24 4c-11.05 0-20 8.95-20 20s8.95 20 20 20 20-8.95 20-20-8.95-20-20-20zm0 24l-8-8h16l-8 8z"/></svg>
<svg xmlns="http://www.w3.org/2000/svg" viewBox="0 0 48 48" id="ic-arrow-drop-up">    <path d="M14 28l10-10 10 10z"/>    <path d="M0 0h48v48h-48z" fill="none"/></svg>
<svg xmlns="http://www.w3.org/2000/svg" viewBox="0 0 48 48" id="ic-arrow-forward">    <path d="M0 0h48v48h-48z" fill="none"/>    <path d="M24 8l-2.83 2.83 11.17 11.17h-24.34v4h24.34l-11.17 11.17 2.83 2.83 16-16z"/></svg>
<svg xmlns="http://www.w3.org/2000/svg" viewBox="0 0 48 48" id="ic-cancel">    <path d="M24 4c-11.05 0-20 8.95-20 20s8.95 20 20 20 20-8.95 20-20-8.95-20-20-20zm10 27.17l-2.83 2.83-7.17-7.17-7.17 7.17-2.83-2.83 7.17-7.17-7.17-7.17 2.83-2.83 7.17 7.17 7.17-7.17 2.83 2.83-7.17 7.17 7.17 7.17z"/>    <path d="M0 0h48v48h-48z" fill="none"/></svg>
<svg xmlns="http://www.w3.org/2000/svg" viewBox="0 0 48 48" id="ic-check">    <path d="M0 0h48v48h-48z" fill="none"/>    <path d="M18 32.34l-8.34-8.34-2.83 2.83 11.17 11.17 24-24-2.83-2.83z"/></svg>
<svg xmlns="http://www.w3.org/2000/svg" viewBox="0 0 48 48" id="ic-chevron-left">    <path d="M30.83 14.83l-2.83-2.83-12 12 12 12 2.83-2.83-9.17-9.17z"/>    <path d="M0 0h48v48h-48z" fill="none"/></svg>
<svg xmlns="http://www.w3.org/2000/svg" viewBox="0 0 48 48" id="ic-chevron-right">    <path d="M20 12l-2.83 2.83 9.17 9.17-9.17 9.17 2.83 2.83 12-12z"/>    <path d="M0 0h48v48h-48z" fill="none"/></svg>
<svg xmlns="http://www.w3.org/2000/svg" viewBox="0 0 48 48" id="ic-close">    <path d="M38 12.83l-2.83-2.83-11.17 11.17-11.17-11.17-2.83 2.83 11.17 11.17-11.17 11.17 2.83 2.83 11.17-11.17 11.17 11.17 2.83-2.83-11.17-11.17z"/>    <path d="M0 0h48v48h-48z" fill="none"/></svg>
<svg xmlns="http://www.w3.org/2000/svg" viewBox="0 0 48 48" id="ic-expand-less">    <path d="M24 16l-12 12 2.83 2.83 9.17-9.17 9.17 9.17 2.83-2.83z"/>    <path d="M0 0h48v48h-48z" fill="none"/></svg>
<svg xmlns="http://www.w3.org/2000/svg" viewBox="0 0 48 48" id="ic-expand-more">    <path d="M33.17 17.17l-9.17 9.17-9.17-9.17-2.83 2.83 12 12 12-12z"/>    <path d="M0 0h48v48h-48z" fill="none"/></svg>
<svg xmlns="http://www.w3.org/2000/svg" viewBox="0 0 48 48" id="ic-fullscreen">    <path d="M0 0h48v48h-48z" fill="none"/>    <path d="M14 28h-4v10h10v-4h-6v-6zm-4-8h4v-6h6v-4h-10v10zm24 14h-6v4h10v-10h-4v6zm-6-24v4h6v6h4v-10h-10z"/></svg>
<svg xmlns="http://www.w3.org/2000/svg" viewBox="0 0 48 48" id="ic-fullscreen-exit">    <path d="M0 0h48v48h-48z" fill="none"/>    <path d="M10 32h6v6h4v-10h-10v4zm6-16h-6v4h10v-10h-4v6zm12 22h4v-6h6v-4h-10v10zm4-22v-6h-4v10h10v-4h-6z"/></svg>
<svg xmlns="http://www.w3.org/2000/svg" viewBox="0 0 48 48" id="ic-menu">    <path d="M0 0h48v48h-48z" fill="none"/>    <path d="M6 36h36v-4h-36v4zm0-10h36v-4h-36v4zm0-14v4h36v-4h-36z"/></svg>
<svg xmlns="http://www.w3.org/2000/svg" viewBox="0 0 48 48" id="ic-more-horiz">    <path d="M0 0h48v48h-48z" fill="none"/>    <path d="M12 20c-2.21 0-4 1.79-4 4s1.79 4 4 4 4-1.79 4-4-1.79-4-4-4zm24 0c-2.21 0-4 1.79-4 4s1.79 4 4 4 4-1.79 4-4-1.79-4-4-4zm-12 0c-2.21 0-4 1.79-4 4s1.79 4 4 4 4-1.79 4-4-1.79-4-4-4z"/></svg>
<svg xmlns="http://www.w3.org/2000/svg" viewBox="0 0 48 48" id="ic-more-vert">    <path d="M0 0h48v48h-48z" fill="none"/>    <path d="M24 16c2.21 0 4-1.79 4-4s-1.79-4-4-4-4 1.79-4 4 1.79 4 4 4zm0 4c-2.21 0-4 1.79-4 4s1.79 4 4 4 4-1.79 4-4-1.79-4-4-4zm0 12c-2.21 0-4 1.79-4 4s1.79 4 4 4 4-1.79 4-4-1.79-4-4-4z"/></svg>
<svg xmlns="http://www.w3.org/2000/svg" viewBox="0 0 48 48" id="ic-refresh">    <path d="M35.3 12.7c-2.89-2.9-6.88-4.7-11.3-4.7-8.84 0-15.98 7.16-15.98 16s7.14 16 15.98 16c7.45 0 13.69-5.1 15.46-12h-4.16c-1.65 4.66-6.07 8-11.3 8-6.63 0-12-5.37-12-12s5.37-12 12-12c3.31 0 6.28 1.38 8.45 3.55l-6.45 6.45h14v-14l-4.7 4.7z"/>    <path d="M0 0h48v48h-48z" fill="none"/></svg>
<svg xmlns="http://www.w3.org/2000/svg" viewBox="0 0 48 48" id="ic-unfold-less">    <path d="M0 0h48v48h-48z" fill="none"/>    <path d="M14.83 37.17l2.83 2.83 6.34-6.34 6.34 6.34 2.83-2.83-9.17-9.17-9.17 9.17zm18.34-26.34l-2.83-2.83-6.34 6.34-6.34-6.34-2.83 2.83 9.17 9.17 9.17-9.17z"/></svg>
<svg xmlns="http://www.w3.org/2000/svg" viewBox="0 0 48 48" id="ic-unfold-more">    <path d="M0 0h48v48h-48z" fill="none"/>    <path d="M24 11.66l6.34 6.34 2.83-2.83-9.17-9.17-9.17 9.17 2.83 2.83 6.34-6.34zm0 24.68l-6.34-6.34-2.83 2.83 9.17 9.17 9.17-9.17-2.83-2.83-6.34 6.34z"/></svg>
</svg>
