<svg xmlns="http://www.w3.org/2000/svg" style="display: none;">
<svg xmlns="http://www.w3.org/2000/svg" viewBox="0 0 48 48" id="ic-adb">    <path d="M0 0h48v48h-48z" fill="none"/>    <path d="M10 32c0 7.73 6.27 14 14 14s14-6.27 14-14v-8h-28v8zm22.25-23.26l4.2-4.2-1.65-1.65-4.61 4.61c-1.88-.93-3.96-1.5-6.19-1.5-2.23 0-4.31.57-6.19 1.5l-4.61-4.61-1.65 1.65 4.2 4.2c-3.47 2.54-5.75 6.62-5.75 11.26v2h28v-2c0-4.64-2.28-8.72-5.75-11.26zm-14.25 9.26c-1.11 0-2-.9-2-2s.89-2 2-2c1.11 0 2 .9 2 2s-.89 2-2 2zm12 0c-1.11 0-2-.9-2-2s.89-2 2-2c1.11 0 2 .9 2 2s-.89 2-2 2z"/></svg>
<svg xmlns="http://www.w3.org/2000/svg" viewBox="0 0 48 48" id="ic-bluetooth-audio">    <path d="M0 0h48v48h-48z" fill="none"/>    <path d="M28.48 24.02l4.64 4.64c.56-1.45.88-3.02.88-4.66 0-1.63-.31-3.19-.86-4.63l-4.66 4.65zm10.58-10.59l-2.53 2.53c1.25 2.41 1.97 5.14 1.97 8.05s-.72 5.63-1.97 8.05l2.4 2.4c1.93-3.1 3.07-6.73 3.07-10.63 0-3.82-1.09-7.37-2.94-10.4zm-7.65 1.98l-11.41-11.41h-2v15.17l-9.17-9.17-2.83 2.83 11.17 11.17-11.17 11.17 2.83 2.83 9.17-9.17v15.17h2l11.41-11.41-8.58-8.59 8.58-8.59zm-9.41-3.75l3.76 3.76-3.76 3.75v-7.51zm3.76 20.93l-3.76 3.75v-7.52l3.76 3.77z"/></svg>
<svg xmlns="http://www.w3.org/2000/svg" viewBox="0 0 48 48" id="ic-disc-full">    <path d="M0 0h48v48h-48z" fill="none"/>    <path d="M40 32h4v-4h-4v4zm0-18v10h4v-10h-4zm-20-6c-8.84 0-16 7.16-16 16s7.16 16 16 16 16-7.16 16-16-7.16-16-16-16zm0 20c-2.21 0-4-1.79-4-4s1.79-4 4-4 4 1.79 4 4-1.79 4-4 4z"/></svg>
<svg xmlns="http://www.w3.org/2000/svg" viewBox="0 0 48 48" id="ic-dnd-forwardslash">    <path d="M-838-1464h1400v3600h-1400zm838 1464h48v48h-48z" fill="none"/>    <path d="M24 4c-11 0-20 9-20 20s9 20 20 20 20-9 20-20-9-20-20-20zm-16 20c0-8.8 7.2-16 16-16 3.7 0 7.1 1.3 9.8 3.4l-22.4 22.4c-2.1-2.7-3.4-6.1-3.4-9.8zm16 16c-3.7 0-7.1-1.3-9.8-3.4l22.4-22.4c2.1 2.7 3.4 6.1 3.4 9.8 0 8.8-7.2 16-16 16z"/></svg>
<svg xmlns="http://www.w3.org/2000/svg" viewBox="0 0 48 48" id="ic-do-not-disturb">    <path d="M0 0h48v48h-48z" fill="none"/>    <path d="M24 4c-11.05 0-20 8.95-20 20s8.95 20 20 20 20-8.95 20-20-8.95-20-20-20zm0 36c-8.84 0-16-7.16-16-16 0-3.7 1.27-7.09 3.37-9.8l22.43 22.43c-2.71 2.1-6.1 3.37-9.8 3.37zm12.63-6.2l-22.43-22.43c2.71-2.1 6.1-3.37 9.8-3.37 8.84 0 16 7.16 16 16 0 3.7-1.27 7.09-3.37 9.8z"/></svg>
<svg xmlns="http://www.w3.org/2000/svg" viewBox="0 0 48 48" id="ic-drive-eta">    <path d="M37.84 10.02c-.41-1.18-1.53-2.02-2.84-2.02h-22c-1.31 0-2.43.84-2.84 2.02l-4.16 11.98v16c0 1.1.9 2 2 2h2c1.11 0 2-.9 2-2v-2h24v2c0 1.1.9 2 2 2h2c1.11 0 2-.9 2-2v-16l-4.16-11.98zm-24.84 19.98c-1.66 0-3-1.34-3-3s1.34-3 3-3 3 1.34 3 3-1.34 3-3 3zm22 0c-1.66 0-3-1.34-3-3s1.34-3 3-3 3 1.34 3 3-1.34 3-3 3zm-25-10l3-9h22l3 9h-28z"/>    <path d="M0 0h48v48h-48z" fill="none"/></svg>
<svg xmlns="http://www.w3.org/2000/svg" viewBox="0 0 48 48" id="ic-event-available">    <path d="M0 0h48v48h-48z" fill="none"/>    <path d="M33.06 22.12l-2.12-2.12-9.76 9.76-4.24-4.24-2.12 2.12 6.36 6.36 11.88-11.88zm4.94-16.12h-2v-4h-4v4h-16v-4h-4v4h-2c-2.21 0-3.98 1.79-3.98 4l-.02 28c0 2.21 1.79 4 4 4h28c2.21 0 4-1.79 4-4v-28c0-2.21-1.79-4-4-4zm0 32h-28v-22h28v22z"/></svg>
<svg xmlns="http://www.w3.org/2000/svg" viewBox="0 0 48 48" id="ic-event-busy">    <path d="M0 0h48v48h-48z" fill="none"/>    <path d="M18.62 34l4.88-4.88 4.88 4.88 2.12-2.12-4.88-4.88 4.88-4.88-2.12-2.12-4.88 4.88-4.88-4.88-2.12 2.12 4.88 4.88-4.88 4.88 2.12 2.12zm19.38-28h-2v-4h-4v4h-16v-4h-4v4h-2c-2.21 0-3.98 1.79-3.98 4l-.02 28c0 2.21 1.79 4 4 4h28c2.21 0 4-1.79 4-4v-28c0-2.21-1.79-4-4-4zm0 32h-28v-22h28v22z"/></svg>
<svg xmlns="http://www.w3.org/2000/svg" viewBox="0 0 48 48" id="ic-event-note">    <path d="M0 0h48v48h-48z" fill="none"/>    <path d="M34 20h-20v4h20v-4zm4-14h-2v-4h-4v4h-16v-4h-4v4h-2c-2.21 0-3.98 1.79-3.98 4l-.02 28c0 2.21 1.79 4 4 4h28c2.21 0 4-1.79 4-4v-28c0-2.21-1.79-4-4-4zm0 32h-28v-22h28v22zm-10-10h-14v4h14v-4z"/></svg>
<svg xmlns="http://www.w3.org/2000/svg" viewBox="0 0 48 48" id="ic-folder-special">    <path d="M0 0h48v48h-48z" fill="none"/>    <path d="M40 12h-16l-4-4h-12c-2.21 0-4 1.79-4 4v24c0 2.21 1.79 4 4 4h32c2.21 0 4-1.79 4-4v-20c0-2.21-1.79-4-4-4zm-12.84 24l-7.16-4.19-7.16 4.19 1.89-8.14-6.32-5.47 8.33-.72 3.26-7.67 3.25 7.67 8.33.72-6.32 5.47 1.9 8.14z"/></svg>
<svg xmlns="http://www.w3.org/2000/svg" viewBox="0 0 48 48" id="ic-mms">    <path d="M40 4h-32c-2.21 0-3.98 1.79-3.98 4l-.02 36 8-8h28c2.21 0 4-1.79 4-4v-24c0-2.21-1.79-4-4-4zm-30 24l7-9 5 6.01 7-9.01 9 12h-28z"/>    <path d="M0 0h48v48h-48z" fill="none"/></svg>
<svg xmlns="http://www.w3.org/2000/svg" viewBox="0 0 48 48" id="ic-more">    <path d="M0 0h48v48h-48z" fill="none"/>    <path d="M44 6h-30c-1.38 0-2.47.7-3.19 1.76l-10.81 16.23 10.81 16.23c.72 1.06 1.94 1.78 3.32 1.78h29.87c2.21 0 4-1.79 4-4v-28c0-2.21-1.79-4-4-4zm-26 21c-1.66 0-3-1.34-3-3s1.34-3 3-3 3 1.34 3 3-1.34 3-3 3zm10 0c-1.66 0-3-1.34-3-3s1.34-3 3-3 3 1.34 3 3-1.34 3-3 3zm10 0c-1.66 0-3-1.34-3-3s1.34-3 3-3 3 1.34 3 3-1.34 3-3 3z"/></svg>
<svg xmlns="http://www.w3.org/2000/svg" viewBox="0 0 48 48" id="ic-network-locked">    <path d="M0 0h48v48h-48zm0 0h48v48h-48z" fill="none"/>    <path d="M39 20c.34 0 .67.06 1 .1v-18.1l-38 38h26v-6c0-1.77.77-3.37 2-4.47v-.53c0-4.96 4.04-9 9-9zm5 12v-3c0-2.76-2.24-5-5-5s-5 2.24-5 5v3c-1.1 0-2 .9-2 2v8c0 1.1.9 2 2 2h10c1.1 0 2-.9 2-2v-8c0-1.1-.9-2-2-2zm-2 0h-6v-3c0-1.66 1.34-3 3-3s3 1.34 3 3v3z"/></svg>
<svg xmlns="http://www.w3.org/2000/svg" viewBox="0 0 48 48" id="ic-phone-bluetooth-speaker">    <path d="M0 0h48v48h-48z" fill="none"/>    <path d="M29.41 19l4.59-4.59v7.59h1l5.71-5.71-4.3-4.29 4.29-4.29-5.7-5.71h-1v7.59l-4.59-4.59-1.41 1.41 5.59 5.59-5.59 5.59 1.41 1.41zm6.59-13.17l1.88 1.88-1.88 1.88v-3.76zm0 8.58l1.88 1.88-1.88 1.88v-3.76zm4 16.59c-2.49 0-4.89-.4-7.14-1.14-.69-.22-1.48-.06-2.03.49l-4.4 4.41c-5.67-2.88-10.29-7.51-13.18-13.17l4.4-4.41c.55-.55.71-1.34.49-2.03-.74-2.25-1.14-4.66-1.14-7.15 0-1.11-.89-2-2-2h-7c-1.11 0-2 .89-2 2 0 18.78 15.22 34 34 34 1.11 0 2-.89 2-2v-7c0-1.11-.89-2-2-2z"/></svg>
<svg xmlns="http://www.w3.org/2000/svg" viewBox="0 0 48 48" id="ic-phone-forwarded">    <path d="M0 0h48v48h-48z" fill="none"/>    <path d="M36 22l10-10-10-10v6h-8v8h8v6zm4 9c-2.49 0-4.89-.4-7.14-1.14-.69-.22-1.48-.06-2.03.49l-4.4 4.41c-5.67-2.88-10.29-7.51-13.18-13.17l4.4-4.41c.55-.55.71-1.34.49-2.03-.74-2.26-1.14-4.66-1.14-7.15 0-1.11-.89-2-2-2h-7c-1.11 0-2 .89-2 2 0 18.78 15.22 34 34 34 1.11 0 2-.89 2-2v-7c0-1.11-.89-2-2-2z"/></svg>
<svg xmlns="http://www.w3.org/2000/svg" viewBox="0 0 48 48" id="ic-phone-in-talk">    <path d="M0 0h48v48h-48z" fill="none"/>    <path d="M40 31c-2.49 0-4.89-.4-7.14-1.14-.69-.22-1.48-.06-2.03.49l-4.4 4.41c-5.67-2.88-10.29-7.51-13.18-13.17l4.4-4.41c.55-.55.71-1.34.49-2.03-.74-2.25-1.14-4.66-1.14-7.15 0-1.11-.89-2-2-2h-7c-1.11 0-2 .89-2 2 0 18.78 15.22 34 34 34 1.11 0 2-.89 2-2v-7c0-1.11-.89-2-2-2zm-2-7h4c0-9.94-8.06-18-18-18v4c7.73 0 14 6.27 14 14zm-8 0h4c0-5.52-4.48-10-10-10v4c3.31 0 6 2.69 6 6z"/></svg>
<svg xmlns="http://www.w3.org/2000/svg" viewBox="0 0 48 48" id="ic-phone-locked">    <path d="M0 0h48v48h-48z" fill="none"/>    <path d="M40 31c-2.49 0-4.9-.4-7.14-1.14-.69-.22-1.48-.06-2.03.49l-4.4 4.41c-5.67-2.88-10.29-7.51-13.18-13.17l4.4-4.41c.55-.55.71-1.34.49-2.03-.74-2.25-1.14-4.66-1.14-7.15 0-1.11-.89-2-2-2h-7c-1.1 0-2 .89-2 2 0 18.78 15.22 34 34 34 1.11 0 2-.89 2-2v-7c0-1.11-.89-2-2-2zm0-23v-1c0-2.76-2.24-5-5-5s-5 2.24-5 5v1c-1.11 0-2 .9-2 2v8c0 1.1.89 2 2 2h10c1.11 0 2-.9 2-2v-8c0-1.1-.89-2-2-2zm-1.6 0h-6.8v-1c0-1.88 1.52-3.4 3.4-3.4s3.4 1.52 3.4 3.4v1z"/></svg>
<svg xmlns="http://www.w3.org/2000/svg" viewBox="0 0 48 48" id="ic-phone-missed">    <path d="M0 0h48v48h-48z" fill="none"/>    <path d="M13 11l11 11 14-14-2-2-12 12-9-9h7v-3h-12v12h3v-7zm34.41 22.34c-6.09-5.79-14.34-9.34-23.41-9.34s-17.32 3.55-23.41 9.34c-.37.37-.59.87-.59 1.42s.22 1.05.59 1.41l4.95 4.96c.36.36.86.59 1.42.59.54 0 1.04-.22 1.4-.57 1.58-1.47 3.38-2.72 5.33-3.71.66-.33 1.12-1.01 1.12-1.8v-6.21c2.89-.93 5.98-1.43 9.19-1.43s6.3.5 9.2 1.44v6.21c0 .79.46 1.47 1.12 1.8 1.95.98 3.75 2.23 5.33 3.71.36.35.85.57 1.4.57.55 0 1.05-.22 1.42-.59l4.95-4.96c.36-.36.59-.86.59-1.41s-.23-1.06-.6-1.43z"/></svg>
<svg xmlns="http://www.w3.org/2000/svg" viewBox="0 0 48 48" id="ic-phone-paused">    <path d="M0 0h48v48h-48z" fill="none"/>    <path d="M34 6h-4v14h4v-14zm6 25c-2.49 0-4.89-.4-7.14-1.14-.69-.22-1.48-.06-2.03.49l-4.4 4.41c-5.67-2.88-10.29-7.51-13.18-13.17l4.4-4.41c.55-.55.71-1.34.49-2.03-.74-2.25-1.14-4.66-1.14-7.15 0-1.11-.89-2-2-2h-7c-1.11 0-2 .89-2 2 0 18.78 15.22 34 34 34 1.11 0 2-.89 2-2v-7c0-1.11-.89-2-2-2zm-2-25v14h4v-14h-4z"/></svg>
<svg xmlns="http://www.w3.org/2000/svg" viewBox="0 0 48 48" id="ic-play-download">    <path d="M0 0h48v48h-48z" fill="none"/>    <path d="M40 12h-8v-4l-4-4h-8l-4 4v4h-8c-2.21 0-3.98 1.79-3.98 4l-.02 22c0 2.21 1.79 4 4 4h32c2.21 0 4-1.79 4-4v-22c0-2.21-1.79-4-4-4zm-20-4h8v4h-8v-4zm4 30l-10-10h6v-8h8v8h6l-10 10z"/></svg>
<svg xmlns="http://www.w3.org/2000/svg" viewBox="0 0 48 48" id="ic-play-install">    <path d="M0 0h48v48h-48z" fill="none"/>    <path d="M40 12h-8v-4l-4-4h-8l-4 4v4h-8c-2.21 0-3.98 1.79-3.98 4l-.02 22c0 2.21 1.79 4 4 4h32c2.21 0 4-1.79 4-4v-22c0-2.21-1.79-4-4-4zm-20-4h8v4h-8v-4zm1 27l-7-7 2.83-2.83 4.17 4.17 10.35-10.35 2.83 2.83-13.18 13.18z"/></svg>
<svg xmlns="http://www.w3.org/2000/svg" viewBox="0 0 48 48" id="ic-sd-card">    <path d="M0 0h48v48h-48z" fill="none"/>    <path d="M36 4h-16l-11.96 12-.04 24c0 2.2 1.8 4 4 4h24c2.2 0 4-1.8 4-4v-32c0-2.2-1.8-4-4-4zm-12 12h-4v-8h4v8zm6 0h-4v-8h4v8zm6 0h-4v-8h4v8z"/></svg>
<svg xmlns="http://www.w3.org/2000/svg" viewBox="0 0 48 48" id="ic-sim-card-alert">    <path d="M0 0h48v48h-48z" fill="none"/>    <path d="M36 4h-16l-11.95 12-.05 24c0 2.2 1.8 4 4 4h24c2.2 0 4-1.8 4-4v-32c0-2.2-1.8-4-4-4zm-10 30h-4v-4h4v4zm0-8h-4v-10h4v10z"/></svg>
<svg xmlns="http://www.w3.org/2000/svg" viewBox="0 0 48 48" id="ic-sms">    <path d="M40 4h-32c-2.21 0-3.98 1.79-3.98 4l-.02 36 8-8h28c2.21 0 4-1.79 4-4v-24c0-2.21-1.79-4-4-4zm-22 18h-4v-4h4v4zm8 0h-4v-4h4v4zm8 0h-4v-4h4v4z"/>    <path d="M0 0h48v48h-48z" fill="none"/></svg>
<svg xmlns="http://www.w3.org/2000/svg" viewBox="0 0 48 48" id="ic-sms-failed">    <path d="M0 0h48v48h-48z" fill="none"/>    <path d="M40 4h-32c-2.21 0-3.98 1.79-3.98 4l-.02 36 8-8h28c2.21 0 4-1.79 4-4v-24c0-2.21-1.79-4-4-4zm-14 24h-4v-4h4v4zm0-8h-4v-8h4v8z"/></svg>
<svg xmlns="http://www.w3.org/2000/svg" viewBox="0 0 48 48" id="ic-sync">    <path d="M24 8v-6l-8 8 8 8v-6c6.63 0 12 5.37 12 12 0 2.03-.51 3.93-1.39 5.61l2.92 2.92c1.55-2.48 2.47-5.39 2.47-8.53 0-8.84-7.16-16-16-16zm0 28c-6.63 0-12-5.37-12-12 0-2.03.51-3.93 1.39-5.61l-2.92-2.92c-1.55 2.48-2.47 5.39-2.47 8.53 0 8.84 7.16 16 16 16v6l8-8-8-8v6z"/>    <path d="M0 0h48v48h-48z" fill="none"/></svg>
<svg xmlns="http://www.w3.org/2000/svg" viewBox="0 0 48 48" id="ic-sync-disabled">    <path d="M0 0h48v48h-48zm0 0h48v48h-48z" fill="none"/>    <path d="M20 12.7v-4.18c-1.6.41-3.09 1.07-4.46 1.92l2.93 2.93c.49-.25 1-.49 1.53-.67zm-14.27-1.88l4.71 4.71c-1.54 2.46-2.44 5.35-2.44 8.47 0 4.42 1.81 8.4 4.71 11.29l-4.71 4.71h12v-12l-4.47 4.47c-2.18-2.17-3.53-5.16-3.53-8.47 0-2 .5-3.88 1.37-5.54l16.17 16.17c-.49.26-1 .49-1.53.68v4.17c1.6-.41 3.09-1.07 4.46-1.92l4.72 4.72 2.55-2.55-31.47-31.46-2.54 2.55zm34.27-2.82h-12v12l4.47-4.47c2.18 2.17 3.53 5.16 3.53 8.47 0 2-.5 3.88-1.37 5.54l2.93 2.93c1.54-2.46 2.44-5.35 2.44-8.47 0-4.42-1.81-8.4-4.71-11.29l4.71-4.71z"/></svg>
<svg xmlns="http://www.w3.org/2000/svg" viewBox="0 0 48 48" id="ic-sync-problem">    <path d="M0 0h48v48h-48z" fill="none"/>    <path d="M6 24c0 4.42 1.82 8.4 4.71 11.29l-4.71 4.71h12v-12l-4.47 4.47c-2.18-2.17-3.53-5.16-3.53-8.47 0-5.22 3.34-9.65 8-11.3v-4.18c-6.9 1.78-12 8.03-12 15.48zm16 10h4v-4h-4v4zm20-26h-12v12l4.47-4.47c2.18 2.17 3.53 5.16 3.53 8.47 0 5.22-3.34 9.65-8 11.3v4.17c6.9-1.77 12-8.02 12-15.47 0-4.42-1.82-8.4-4.71-11.29l4.71-4.71zm-20 18h4v-12h-4v12z"/></svg>
<svg xmlns="http://www.w3.org/2000/svg" viewBox="0 0 48 48" id="ic-system-update">    <path d="M0 0h48v48h-48z" fill="none"/>    <path d="M34 2.02l-20-.02c-2.21 0-4 1.79-4 4v36c0 2.21 1.79 4 4 4h20c2.21 0 4-1.79 4-4v-36c0-2.21-1.79-3.98-4-3.98zm0 35.98h-20v-28h20v28zm-2-12h-6v-10h-4v10h-6l8 8 8-8z"/></svg>
<svg xmlns="http://www.w3.org/2000/svg" viewBox="0 0 48 48" id="ic-tap-and-play">    <path d="M0 0h48v48h-48z" fill="none"/>    <path d="M4 32v4c5.52 0 10 4.48 10 10h4c0-7.73-6.27-14-14-14zm0 8v6h6c0-3.31-2.69-6-6-6zm0-16v4c9.94 0 18 8.06 18 18h4c0-12.15-9.85-22-22-22zm30-21.98l-20-.02c-2.21 0-4 1.79-4 4v14.74c1.38.33 2.72.74 4 1.28v-12.02h20v26h-6.06c1.04 2.49 1.68 5.19 1.9 8h4.16c2.21 0 4-1.79 4-4v-34c0-2.21-1.79-3.98-4-3.98z"/></svg>
<svg xmlns="http://www.w3.org/2000/svg" viewBox="0 0 48 48" id="ic-time-to-leave">    <path d="M37.84 10.02c-.41-1.18-1.53-2.02-2.84-2.02h-22c-1.31 0-2.43.84-2.84 2.02l-4.16 11.98v16c0 1.1.9 2 2 2h2c1.11 0 2-.9 2-2v-2h24v2c0 1.1.9 2 2 2h2c1.11 0 2-.9 2-2v-16l-4.16-11.98zm-24.84 19.98c-1.66 0-3-1.34-3-3s1.34-3 3-3 3 1.34 3 3-1.34 3-3 3zm22 0c-1.66 0-3-1.34-3-3s1.34-3 3-3 3 1.34 3 3-1.34 3-3 3zm-25-10l3-9h22l3 9h-28z"/>    <path d="M0 0h48v48h-48z" fill="none"/></svg>
<svg xmlns="http://www.w3.org/2000/svg" viewBox="0 0 48 48" id="ic-vibration">    <path d="M0 0h48v48h-48z" fill="none"/>    <path d="M0 30h4v-12h-4v12zm6 4h4v-20h-4v20zm38-16v12h4v-12h-4zm-6 16h4v-20h-4v20zm-5-28h-18c-1.66 0-3 1.34-3 3v30c0 1.66 1.34 3 3 3h18c1.66 0 3-1.34 3-3v-30c0-1.66-1.34-3-3-3zm-1 32h-16v-28h16v28z"/></svg>
<svg xmlns="http://www.w3.org/2000/svg" viewBox="0 0 48 48" id="ic-voice-chat">    <path d="M0 0h48v48h-48z" fill="none"/>    <path d="M40 4h-32c-2.21 0-3.98 1.79-3.98 4l-.02 36 8-8h28c2.21 0 4-1.79 4-4v-24c0-2.21-1.79-4-4-4zm-4 24l-8-6.4v6.4h-16v-16h16v6.4l8-6.4v16z"/></svg>
<svg xmlns="http://www.w3.org/2000/svg" viewBox="0 0 48 48" id="ic-vpn-lock">    <path d="M44 8v-1c0-2.76-2.24-5-5-5s-5 2.24-5 5v1c-1.11 0-2 .9-2 2v8c0 1.1.89 2 2 2h10c1.11 0 2-.9 2-2v-8c0-1.1-.89-2-2-2zm-1.6 0h-6.8v-1c0-1.88 1.52-3.4 3.4-3.4s3.4 1.52 3.4 3.4v1zm-4.55 16c.08.66.15 1.32.15 2 0 4.16-1.6 7.94-4.21 10.79-.51-1.62-2.01-2.79-3.79-2.79h-2v-6c0-1.1-.9-2-2-2h-12v-4h4c1.1 0 2-.9 2-2v-4h4c2.21 0 4-1.79 4-4v-5.08c-1.89-.6-3.91-.92-6-.92-11.05 0-20 8.95-20 20s8.95 20 20 20 20-8.95 20-20c0-.68-.04-1.34-.1-2h-4.05zm-17.85 17.86c-7.89-.98-14-7.7-14-15.86 0-1.23.15-2.43.42-3.58l9.58 9.58v2c0 2.21 1.79 4 4 4v3.86z"/>    <path d="M0 0h48v48h-48z" fill="none"/></svg>
</svg>
