<svg xmlns="http://www.w3.org/2000/svg" style="display: none;">
<svg xmlns="http://www.w3.org/2000/svg" viewBox="0 0 48 48" id="ic-cake">    <path d="M24 14c2.21 0 4-1.79 4-4 0-.75-.21-1.46-.57-2.06l-3.43-5.94-3.43 5.94c-.36.6-.57 1.31-.57 2.06 0 2.21 1.79 4 4 4zm18 28v-8c0-2.21-1.79-4-4-4h-2v-6c0-2.21-1.79-4-4-4h-6v-4h-4v4h-6c-2.21 0-4 1.79-4 4v6h-2c-2.21 0-4 1.79-4 4v8h-4v4h44v-4h-4z"/>    <path d="M0 0h48v48h-48z" fill="none"/></svg>
<svg xmlns="http://www.w3.org/2000/svg" viewBox="0 0 48 48" id="ic-domain">    <path d="M0 0h48v48h-48z" fill="none"/>    <path d="M24 14v-8h-20v36h40v-28h-20zm-12 24h-4v-4h4v4zm0-8h-4v-4h4v4zm0-8h-4v-4h4v4zm0-8h-4v-4h4v4zm8 24h-4v-4h4v4zm0-8h-4v-4h4v4zm0-8h-4v-4h4v4zm0-8h-4v-4h4v4zm20 24h-16v-4h4v-4h-4v-4h4v-4h-4v-4h16v20zm-4-16h-4v4h4v-4zm0 8h-4v4h4v-4z"/></svg>
<svg xmlns="http://www.w3.org/2000/svg" viewBox="0 0 48 48" id="ic-group">    <path d="M0 0h48v48h-48z" fill="none"/>    <path d="M32 22c3.31 0 5.98-2.69 5.98-6s-2.67-6-5.98-6c-3.31 0-6 2.69-6 6s2.69 6 6 6zm-16 0c3.31 0 5.98-2.69 5.98-6s-2.67-6-5.98-6c-3.31 0-6 2.69-6 6s2.69 6 6 6zm0 4c-4.67 0-14 2.34-14 7v5h28v-5c0-4.66-9.33-7-14-7zm16 0c-.58 0-1.23.04-1.93.11 2.32 1.67 3.93 3.92 3.93 6.89v5h12v-5c0-4.66-9.33-7-14-7z"/></svg>
<svg xmlns="http://www.w3.org/2000/svg" viewBox="0 0 48 48" id="ic-group-add">    <path d="M0 0h48v48h-48z" fill="none"/>    <path d="M16 20h-6v-6h-4v6h-6v4h6v6h4v-6h6v-4zm20 2c3.31 0 5.98-2.69 5.98-6s-2.67-6-5.98-6c-.64 0-1.25.1-1.83.29 1.13 1.62 1.81 3.59 1.81 5.71s-.68 4.09-1.81 5.71c.58.19 1.19.29 1.83.29zm-10 0c3.31 0 5.98-2.69 5.98-6s-2.67-6-5.98-6c-3.31 0-6 2.69-6 6s2.69 6 6 6zm13.24 4.32c1.66 1.45 2.76 3.32 2.76 5.68v4h6v-4c0-3.08-4.75-4.97-8.76-5.68zm-13.24-.32c-4 0-12 2-12 6v4h24v-4c0-4-8-6-12-6z"/></svg>
<svg xmlns="http://www.w3.org/2000/svg" viewBox="0 0 48 48" id="ic-location-city">    <path d="M30 22v-12l-6-6-6 6v4h-12v28h36v-20h-12zm-16 16h-4v-4h4v4zm0-8h-4v-4h4v4zm0-8h-4v-4h4v4zm12 16h-4v-4h4v4zm0-8h-4v-4h4v4zm0-8h-4v-4h4v4zm0-8h-4v-4h4v4zm12 24h-4v-4h4v4zm0-8h-4v-4h4v4z"/>    <path d="M0 0h48v48h-48z" fill="none"/></svg>
<svg xmlns="http://www.w3.org/2000/svg" viewBox="0 0 48 48" id="ic-mood">    <path d="M0 0h48v48h-48z" fill="none"/>    <path d="M23.99 4c-11.05 0-19.99 8.95-19.99 20s8.94 20 19.99 20c11.05 0 20.01-8.95 20.01-20s-8.96-20-20.01-20zm.01 36c-8.84 0-16-7.16-16-16s7.16-16 16-16 16 7.16 16 16-7.16 16-16 16zm7-18c1.66 0 3-1.34 3-3s-1.34-3-3-3-3 1.34-3 3 1.34 3 3 3zm-14 0c1.66 0 3-1.34 3-3s-1.34-3-3-3-3 1.34-3 3 1.34 3 3 3zm7 13c4.66 0 8.61-2.91 10.21-7h-20.42c1.6 4.09 5.55 7 10.21 7z"/></svg>
<svg xmlns="http://www.w3.org/2000/svg" viewBox="0 0 48 48" id="ic-notifications">    <path d="M23 44c2.21 0 4-1.79 4-4h-8c0 2.21 1.79 4 4 4zm13-12v-11c0-6.15-4.27-11.28-10-12.64v-1.36c0-1.66-1.34-3-3-3s-3 1.34-3 3v1.36c-5.73 1.36-10 6.49-10 12.64v11l-4 4v2h34v-2l-4-4z"/>    <path d="M0 0h48v48h-48z" fill="none"/></svg>
<svg xmlns="http://www.w3.org/2000/svg" viewBox="0 0 48 48" id="ic-notifications-none">    <path d="M23 44c2.21 0 4-1.79 4-4h-8c0 2.21 1.79 4 4 4zm13-12v-11c0-6.15-4.27-11.28-10-12.64v-1.36c0-1.66-1.34-3-3-3s-3 1.34-3 3v1.36c-5.73 1.36-10 6.49-10 12.64v11l-4 4v2h34v-2l-4-4zm-4 2h-18v-13c0-4.97 4.03-9 9-9s9 4.03 9 9v13z"/>    <path d="M0 0h48v48h-48z" fill="none"/></svg>
<svg xmlns="http://www.w3.org/2000/svg" viewBox="0 0 48 48" id="ic-notifications-off">    <path d="M0 0h48v48h-48z" fill="none"/>    <path d="M23 44c2.21 0 4-1.79 4-4h-8c0 2.21 1.79 4 4 4zm13-23c0-6.15-4.27-11.28-10-12.64v-1.36c0-1.66-1.34-3-3-3s-3 1.34-3 3v1.36c-1.02.24-1.98.64-2.89 1.11l18.89 18.89v-7.36zm-.54 17l4 4 2.54-2.55-33.45-33.45-2.55 2.55 5.84 5.84c-1.16 1.93-1.84 4.19-1.84 6.61v11l-4 4v2h29.46z"/></svg>
<svg xmlns="http://www.w3.org/2000/svg" viewBox="0 0 48 48" id="ic-notifications-on">    <path d="M0 0h48v48h-48z" fill="none"/>    <path d="M13.16 7.16l-2.86-2.86c-4.79 3.65-7.95 9.29-8.25 15.7h4c.31-5.3 3.04-9.94 7.11-12.84zm26.79 12.84h4c-.3-6.41-3.46-12.05-8.25-15.7l-2.85 2.85c4.06 2.91 6.79 7.55 7.1 12.85zm-3.95 1c0-6.15-4.27-11.28-10-12.64v-1.36c0-1.66-1.34-3-3-3s-3 1.34-3 3v1.36c-5.73 1.36-10 6.49-10 12.64v11l-4 4v2h34v-2l-4-4v-11zm-13 23c.28 0 .55-.03.81-.08 1.3-.27 2.37-1.17 2.88-2.36.2-.48.31-1 .31-1.56h-8c0 2.21 1.79 4 4 4z"/></svg>
<svg xmlns="http://www.w3.org/2000/svg" viewBox="0 0 48 48" id="ic-notifications-paused">    <path d="M0 0h48v48h-48z" fill="none"/>    <path d="M23 44c2.21 0 4-1.79 4-4h-8c0 2.21 1.79 4 4 4zm13-12v-11c0-6.15-4.27-11.28-10-12.64v-1.36c0-1.66-1.34-3-3-3s-3 1.34-3 3v1.36c-5.73 1.36-10 6.49-10 12.64v11l-4 4v2h34v-2l-4-4zm-8-12.4l-5.6 6.8h5.6v3.6h-10v-3.6l5.6-6.8h-5.6v-3.6h10v3.6z"/></svg>
<svg xmlns="http://www.w3.org/2000/svg" viewBox="0 0 48 48" id="ic-pages">    <path d="M0 0h48v48h-48z" fill="none"/>    <path d="M6 10v12h10l-2-8 8 2v-10h-12c-2.21 0-4 1.79-4 4zm10 16h-10v12c0 2.21 1.79 4 4 4h12v-10l-8 2 2-8zm18 8l-8-2v10h12c2.21 0 4-1.79 4-4v-12h-10l2 8zm4-28h-12v10l8-2-2 8h10v-12c0-2.21-1.79-4-4-4z"/></svg>
<svg xmlns="http://www.w3.org/2000/svg" viewBox="0 0 48 48" id="ic-party-mode">    <path d="M0 0h48v48h-48z" fill="none"/>    <path d="M40 8h-6.34l-3.66-4h-12l-3.66 4h-6.34c-2.21 0-4 1.79-4 4v24c0 2.21 1.79 4 4 4h32c2.21 0 4-1.79 4-4v-24c0-2.21-1.79-4-4-4zm-16 6c3.26 0 6.13 1.59 7.96 4h-7.96c-3.31 0-6 2.69-6 6 0 .71.14 1.37.37 2h-4.17c-.13-.65-.2-1.31-.2-2 0-5.52 4.48-10 10-10zm0 20c-3.26 0-6.13-1.58-7.95-4h7.95c3.31 0 6-2.69 6-6 0-.7-.14-1.37-.37-2h4.17c.13.65.2 1.31.2 2 0 5.52-4.48 10-10 10z"/></svg>
<svg xmlns="http://www.w3.org/2000/svg" viewBox="0 0 48 48" id="ic-people">    <path d="M0 0h48v48h-48z" fill="none"/>    <path d="M32 22c3.31 0 5.98-2.69 5.98-6s-2.67-6-5.98-6c-3.31 0-6 2.69-6 6s2.69 6 6 6zm-16 0c3.31 0 5.98-2.69 5.98-6s-2.67-6-5.98-6c-3.31 0-6 2.69-6 6s2.69 6 6 6zm0 4c-4.67 0-14 2.34-14 7v5h28v-5c0-4.66-9.33-7-14-7zm16 0c-.58 0-1.23.04-1.93.11 2.32 1.67 3.93 3.92 3.93 6.89v5h12v-5c0-4.66-9.33-7-14-7z"/></svg>
<svg xmlns="http://www.w3.org/2000/svg" viewBox="0 0 48 48" id="ic-people-outline">    <path d="M0 0h48v48h-48z" fill="none"/>    <path d="M33 26c-2.41 0-6.15.67-9 2.01-2.85-1.34-6.59-2.01-9-2.01-4.33 0-13 2.17-13 6.5v5.5h44v-5.5c0-4.33-8.67-6.5-13-6.5zm-8 9h-20v-2.5c0-1.07 5.12-3.5 10-3.5s10 2.43 10 3.5v2.5zm18 0h-15v-2.5c0-.91-.4-1.72-1.04-2.44 1.77-.6 3.93-1.06 6.04-1.06 4.88 0 10 2.43 10 3.5v2.5zm-28-11c3.87 0 7-3.14 7-7s-3.13-7-7-7c-3.86 0-7 3.14-7 7s3.14 7 7 7zm0-11c2.21 0 4 1.79 4 4s-1.79 4-4 4-4-1.79-4-4 1.79-4 4-4zm18 11c3.87 0 7-3.14 7-7s-3.13-7-7-7c-3.86 0-7 3.14-7 7s3.14 7 7 7zm0-11c2.21 0 4 1.79 4 4s-1.79 4-4 4-4-1.79-4-4 1.79-4 4-4z"/></svg>
<svg xmlns="http://www.w3.org/2000/svg" viewBox="0 0 48 48" id="ic-person">    <path d="M24 24c4.42 0 8-3.59 8-8 0-4.42-3.58-8-8-8s-8 3.58-8 8c0 4.41 3.58 8 8 8zm0 4c-5.33 0-16 2.67-16 8v4h32v-4c0-5.33-10.67-8-16-8z"/>    <path d="M0 0h48v48h-48z" fill="none"/></svg>
<svg xmlns="http://www.w3.org/2000/svg" viewBox="0 0 48 48" id="ic-person-add">    <path d="M0 0h48v48h-48z" fill="none"/>    <path d="M30 24c4.42 0 8-3.59 8-8 0-4.42-3.58-8-8-8s-8 3.58-8 8c0 4.41 3.58 8 8 8zm-18-4v-6h-4v6h-6v4h6v6h4v-6h6v-4h-6zm18 8c-5.33 0-16 2.67-16 8v4h32v-4c0-5.33-10.67-8-16-8z"/></svg>
<svg xmlns="http://www.w3.org/2000/svg" viewBox="0 0 48 48" id="ic-person-outline">    <path d="M24 11.8c2.32 0 4.2 1.88 4.2 4.2s-1.88 4.2-4.2 4.2-4.2-1.88-4.2-4.2 1.88-4.2 4.2-4.2m0 18c5.95 0 12.2 2.91 12.2 4.2v2.2h-24.4v-2.2c0-1.29 6.25-4.2 12.2-4.2m0-21.8c-4.42 0-8 3.58-8 8 0 4.41 3.58 8 8 8s8-3.59 8-8c0-4.42-3.58-8-8-8zm0 18c-5.33 0-16 2.67-16 8v6h32v-6c0-5.33-10.67-8-16-8z"/>    <path d="M0 0h48v48h-48z" fill="none"/></svg>
<svg xmlns="http://www.w3.org/2000/svg" viewBox="0 0 48 48" id="ic-plus-one">    <path d="M0 0h48v48h-48z" fill="none"/>    <path d="M20 16h-4v8h-8v4h8v8h4v-8h8v-4h-8zm9-3.84v3.64l5-1v21.2h4v-26z"/></svg>
<svg xmlns="http://www.w3.org/2000/svg" viewBox="0 0 48 48" id="ic-poll">    <path d="M38 6h-28c-2.21 0-4 1.79-4 4v28c0 2.21 1.79 4 4 4h28c2.21 0 4-1.79 4-4v-28c0-2.21-1.79-4-4-4zm-20 28h-4v-14h4v14zm8 0h-4v-20h4v20zm8 0h-4v-8h4v8z"/>    <path d="M0 0h48v48h-48z" fill="none"/></svg>
<svg xmlns="http://www.w3.org/2000/svg" viewBox="0 0 48 48" id="ic-public">    <path d="M0 0h48v48h-48z" fill="none"/>    <path d="M24 4c-11.05 0-20 8.95-20 20s8.95 20 20 20 20-8.95 20-20-8.95-20-20-20zm-2 35.86c-7.89-.98-14-7.7-14-15.86 0-1.23.15-2.43.42-3.58l9.58 9.58v2c0 2.21 1.79 4 4 4v3.86zm13.79-5.07c-.51-1.62-2.01-2.79-3.79-2.79h-2v-6c0-1.1-.9-2-2-2h-12v-4h4c1.1 0 2-.9 2-2v-4h4c2.21 0 4-1.79 4-4v-.83c5.86 2.37 10 8.11 10 14.83 0 4.16-1.6 7.94-4.21 10.79z"/></svg>
<svg xmlns="http://www.w3.org/2000/svg" viewBox="0 0 48 48" id="ic-school">    <path d="M0 0h48v48h-48z" fill="none"/>    <path d="M10 26.36v8l14 7.64 14-7.64v-8l-14 7.64-14-7.64zm14-20.36l-22 12 22 12 18-9.82v13.82h4v-16l-22-12z"/></svg>
<svg xmlns="http://www.w3.org/2000/svg" viewBox="0 0 48 48" id="ic-share">    <path d="M0 0h48v48h-48z" fill="none"/>    <path d="M36 32.17c-1.52 0-2.89.59-3.93 1.54l-14.25-8.31c.11-.45.18-.92.18-1.4s-.07-.95-.18-1.4l14.1-8.23c1.07 1 2.5 1.62 4.08 1.62 3.31 0 6-2.69 6-6s-2.69-6-6-6-6 2.69-6 6c0 .48.07.95.18 1.4l-14.1 8.23c-1.07-1-2.5-1.62-4.08-1.62-3.31 0-6 2.69-6 6s2.69 6 6 6c1.58 0 3.01-.62 4.08-1.62l14.25 8.31c-.1.42-.16.86-.16 1.31 0 3.22 2.61 5.83 5.83 5.83s5.83-2.61 5.83-5.83-2.61-5.83-5.83-5.83z"/></svg>
<svg xmlns="http://www.w3.org/2000/svg" viewBox="0 0 48 48" id="ic-whatshot">    <path d="M27 1.34s1.48 5.3 1.48 9.6c0 4.12-2.7 7.47-6.83 7.47s-7.25-3.34-7.25-7.47l.05-.72c-4.02 4.81-6.45 11.01-6.45 17.78 0 8.84 7.16 16 16 16s16-7.16 16-16c0-10.79-5.19-20.41-13-26.66zm-3.58 36.66c-3.56 0-6.45-2.81-6.45-6.28 0-3.25 2.09-5.53 5.63-6.24s7.2-2.41 9.23-5.15c.78 2.58 1.19 5.3 1.19 8.07 0 5.29-4.3 9.6-9.6 9.6z"/>    <path d="M0 0h48v48h-48z" fill="none"/></svg>
</svg>
