<svg xmlns="http://www.w3.org/2000/svg" style="display: none;">
<svg  viewBox="0 0 48 48" id="ic-check-box">    <path d="M0 0h48v48H0z" fill="none"/>    <path d="M38 6H10c-2.21 0-4 1.79-4 4v28c0 2.21 1.79 4 4 4h28c2.21 0 4-1.79 4-4V10c0-2.21-1.79-4-4-4zM20 34L10 24l2.83-2.83L20 28.34l15.17-15.17L38 16 20 34z"/></svg>
<svg  viewBox="0 0 48 48" id="ic-check-box-outline-blank">    <path d="M38 10v28H10V10h28m0-4H10c-2.21 0-4 1.79-4 4v28c0 2.21 1.79 4 4 4h28c2.21 0 4-1.79 4-4V10c0-2.21-1.79-4-4-4z"/>    <path d="M0 0h48v48H0z" fill="none"/></svg>
<svg  viewBox="0 0 48 48" id="ic-radio-button-off">    <path d="M24 4C12.95 4 4 12.95 4 24s8.95 20 20 20 20-8.95 20-20S35.05 4 24 4zm0 36c-8.84 0-16-7.16-16-16S15.16 8 24 8s16 7.16 16 16-7.16 16-16 16z"/>    <path d="M0 0h48v48H0z" fill="none"/></svg>
<svg  viewBox="0 0 48 48" id="ic-radio-button-on">    <path d="M24 14c-5.52 0-10 4.48-10 10s4.48 10 10 10 10-4.48 10-10-4.48-10-10-10zm0-10C12.95 4 4 12.95 4 24s8.95 20 20 20 20-8.95 20-20S35.05 4 24 4zm0 36c-8.84 0-16-7.16-16-16S15.16 8 24 8s16 7.16 16 16-7.16 16-16 16z"/>    <path d="M0 0h48v48H0z" fill="none"/></svg>

<svg id="ic-star-outline"
      viewBox="0 0 1024 1024" >
  <path fill="#272636" d="M512 679.904l102.272-212.032 17.92-37.248 40.896-6.08 232.448-34.56L736 221.024l-28.416-28.416 6.656-39.616 39.552-236.16-204.8 110.144L512 46.816l-37.056-19.968-204.8-110.208 39.616 236.224 6.656 39.616L287.872 221.024 118.464 390.048l232.448 34.56 40.896 6.08 17.984 37.248L512 679.904M512 734.048c-25.024 0-47.872-14.144-58.56-36.224L352.064 487.456 118.912 452.768C94.976 449.184 75.072 432.8 67.328 410.4c-7.68-22.4-1.856-47.104 15.04-63.936l170.816-170.688-39.616-236.608c-3.968-23.808 6.336-47.744 26.56-61.696 11.136-7.616 24.192-11.52 37.312-11.52 10.752 0 21.504 2.56 31.296 7.808L512-16.736l203.264-109.504c9.792-5.248 20.544-7.808 31.296-7.808 13.056 0 26.112 3.904 37.248 11.52 20.224 13.952 30.592 37.888 26.56 61.696l-39.68 236.608 170.944 170.688c16.96 16.832 22.656 41.536 14.976 63.936-7.744 22.4-27.648 38.72-51.584 42.368l-233.152 34.688L570.56 697.824C559.936 719.968 537.088 734.048 512 734.048L512 734.048z" transform="translate(0, 812) scale(1, -1)"/>
</svg>

<svg version="1.1" id="ic-star"
     viewBox="0 0 1024 1024" >
  <path fill="#272636" d="M478.519 707.841c17.586 37.498 46.403 37.498 63.987 0l84.794-180.594c17.584-37.543 64.209-73.16 103.586-79.156l189.544-28.951c39.377-6.042 48.282-34.857 19.777-64.032l-137.147-140.592c-28.504-29.172-46.313-86.806-39.556-128.062l32.352-198.45c6.712-41.256-16.557-59.064-51.816-39.598l-169.498 93.696c-35.214 19.465-92.849 19.465-128.063 0l-169.498-93.696c-35.259-19.465-58.526-1.658-51.815 39.598l32.352 198.45c6.757 41.255-11.054 98.889-39.556 128.062l-137.147 140.593c-28.503 29.175-19.598 57.991 19.778 64.032l189.544 28.951c39.377 5.996 86.001 41.613 103.587 79.156l84.793 180.593z" transform="translate(0, 812) scale(1, -1)"/>
</svg>


</svg>
